solid OpenSCAD_Model
  facet normal -1 0 0
    outer loop
      vertex -131.5 -6 0
      vertex -131.5 -3.5 18
      vertex -131.5 -3.5 0
    endloop
  endfacet
  facet normal -1 -0 0
    outer loop
      vertex -131.5 -3.5 18
      vertex -131.5 -6 0
      vertex -131.5 -6 18
    endloop
  endfacet
  facet normal 1 -0 0
    outer loop
      vertex -126.5 -6 18
      vertex -126.5 -3.5 0
      vertex -126.5 -3.5 18
    endloop
  endfacet
  facet normal 1 0 0
    outer loop
      vertex -126.5 -3.5 0
      vertex -126.5 -6 18
      vertex -126.5 -6 0
    endloop
  endfacet
  facet normal -1 0 0
    outer loop
      vertex -134 -3.5 0
      vertex -134 1.5 18
      vertex -134 1.5 0
    endloop
  endfacet
  facet normal -1 -0 0
    outer loop
      vertex -134 1.5 18
      vertex -134 -3.5 0
      vertex -134 -3.5 18
    endloop
  endfacet
  facet normal 1 -0 0
    outer loop
      vertex -124 -3.5 18
      vertex -124 1.5 0
      vertex -124 1.5 18
    endloop
  endfacet
  facet normal 1 0 0
    outer loop
      vertex -124 1.5 0
      vertex -124 -3.5 18
      vertex -124 -3.5 0
    endloop
  endfacet
  facet normal 0 1 -0
    outer loop
      vertex -124 1.5 0
      vertex -134 1.5 18
      vertex -124 1.5 18
    endloop
  endfacet
  facet normal 0 1 0
    outer loop
      vertex -134 1.5 18
      vertex -124 1.5 0
      vertex -134 1.5 0
    endloop
  endfacet
  facet normal 0 -1 0
    outer loop
      vertex -134 -3.5 0
      vertex -131.5 -3.5 18
      vertex -134 -3.5 18
    endloop
  endfacet
  facet normal 0 -1 -0
    outer loop
      vertex -131.5 -3.5 18
      vertex -134 -3.5 0
      vertex -131.5 -3.5 0
    endloop
  endfacet
  facet normal 0 -1 0
    outer loop
      vertex -126.5 -3.5 0
      vertex -124 -3.5 18
      vertex -126.5 -3.5 18
    endloop
  endfacet
  facet normal 0 -1 -0
    outer loop
      vertex -124 -3.5 18
      vertex -126.5 -3.5 0
      vertex -124 -3.5 0
    endloop
  endfacet
  facet normal 0 1 -0
    outer loop
      vertex -131.5 -6 0
      vertex -142.333 -6 18
      vertex -131.5 -6 18
    endloop
  endfacet
  facet normal 0 1 0
    outer loop
      vertex -142.333 -6 18
      vertex -131.5 -6 0
      vertex -142.333 -6 0
    endloop
  endfacet
  facet normal 0 1 -0
    outer loop
      vertex -113.892 -6 0
      vertex -126.5 -6 18
      vertex -113.892 -6 18
    endloop
  endfacet
  facet normal 0 1 0
    outer loop
      vertex -126.5 -6 18
      vertex -113.892 -6 0
      vertex -126.5 -6 0
    endloop
  endfacet
  facet normal 0 1 -0
    outer loop
      vertex -6.3 -108.8 0
      vertex -8.2 -108.8 18
      vertex -6.3 -108.8 18
    endloop
  endfacet
  facet normal 0 1 0
    outer loop
      vertex -8.2 -108.8 18
      vertex -6.3 -108.8 0
      vertex -8.2 -108.8 0
    endloop
  endfacet
  facet normal 0 -1 0
    outer loop
      vertex -8.2 -103.2 0
      vertex -6.3 -103.2 18
      vertex -8.2 -103.2 18
    endloop
  endfacet
  facet normal 0 -1 -0
    outer loop
      vertex -6.3 -103.2 18
      vertex -8.2 -103.2 0
      vertex -6.3 -103.2 0
    endloop
  endfacet
  facet normal 0 1 -0
    outer loop
      vertex -8.2 -111.3 0
      vertex -13.8 -111.3 18
      vertex -8.2 -111.3 18
    endloop
  endfacet
  facet normal 0 1 0
    outer loop
      vertex -13.8 -111.3 18
      vertex -8.2 -111.3 0
      vertex -13.8 -111.3 0
    endloop
  endfacet
  facet normal 0 -1 0
    outer loop
      vertex -13.8 -100.7 0
      vertex -8.2 -100.7 18
      vertex -13.8 -100.7 18
    endloop
  endfacet
  facet normal 0 -1 -0
    outer loop
      vertex -8.2 -100.7 18
      vertex -13.8 -100.7 0
      vertex -8.2 -100.7 0
    endloop
  endfacet
  facet normal 1 -0 0
    outer loop
      vertex -13.8 -111.3 18
      vertex -13.8 -100.7 0
      vertex -13.8 -100.7 18
    endloop
  endfacet
  facet normal 1 0 0
    outer loop
      vertex -13.8 -100.7 0
      vertex -13.8 -111.3 18
      vertex -13.8 -111.3 0
    endloop
  endfacet
  facet normal -1 0 0
    outer loop
      vertex -8.2 -111.3 0
      vertex -8.2 -108.8 18
      vertex -8.2 -108.8 0
    endloop
  endfacet
  facet normal -1 -0 0
    outer loop
      vertex -8.2 -108.8 18
      vertex -8.2 -111.3 0
      vertex -8.2 -111.3 18
    endloop
  endfacet
  facet normal -1 0 0
    outer loop
      vertex -8.2 -103.2 0
      vertex -8.2 -100.7 18
      vertex -8.2 -100.7 0
    endloop
  endfacet
  facet normal -1 -0 0
    outer loop
      vertex -8.2 -100.7 18
      vertex -8.2 -103.2 0
      vertex -8.2 -103.2 18
    endloop
  endfacet
  facet normal 1 -0 0
    outer loop
      vertex -6.3 -121.759 18
      vertex -6.3 -108.8 0
      vertex -6.3 -108.8 18
    endloop
  endfacet
  facet normal 1 0 0
    outer loop
      vertex -6.3 -108.8 0
      vertex -6.3 -121.759 18
      vertex -6.3 -121.759 0
    endloop
  endfacet
  facet normal 1 -0 0
    outer loop
      vertex -6.3 -103.2 18
      vertex -6.3 -88.1991 0
      vertex -6.3 -88.1991 18
    endloop
  endfacet
  facet normal 1 0 0
    outer loop
      vertex -6.3 -88.1991 0
      vertex -6.3 -103.2 18
      vertex -6.3 -103.2 0
    endloop
  endfacet
  facet normal 0.0350543 -0.999385 0
    outer loop
      vertex -16.7106 -123.372 0
      vertex -16.7106 -123.372 18
      vertex -17.1837 -123.389 7.03401
    endloop
  endfacet
  facet normal -0.212806 -0.977094 0.000635757
    outer loop
      vertex -17.2204 -123.385 0
      vertex -17.1837 -123.389 7.03401
      vertex -17.6938 -123.278 7.03401
    endloop
  endfacet
  facet normal -0.458459 -0.888715 0.000433476
    outer loop
      vertex -17.7169 -123.269 0
      vertex -17.6938 -123.278 7.03401
      vertex -18.1578 -123.038 7.03401
    endloop
  endfacet
  facet normal -0.672847 -0.739781 0.000222429
    outer loop
      vertex -18.1679 -123.031 0
      vertex -18.1578 -123.038 7.03401
      vertex -18.5441 -122.687 7.03401
    endloop
  endfacet
  facet normal -0.839733 -0.543 0
    outer loop
      vertex -18.5441 -122.687 0
      vertex -18.5441 -122.687 7.03401
      vertex -18.821 -122.259 0
    endloop
  endfacet
  facet normal -0.675114 -0.737713 0
    outer loop
      vertex -18.1679 -123.031 0
      vertex -18.5441 -122.687 7.03401
      vertex -18.5441 -122.687 0
    endloop
  endfacet
  facet normal -0.227791 -0.97371 0.000272431
    outer loop
      vertex -17.6938 -123.278 7.03401
      vertex -17.2204 -123.385 18
      vertex -17.7169 -123.269 18
    endloop
  endfacet
  facet normal -0.458459 -0.888716 -0.000278048
    outer loop
      vertex -17.6938 -123.278 7.03401
      vertex -17.7169 -123.269 18
      vertex -18.1578 -123.038 7.03401
    endloop
  endfacet
  facet normal -0.466611 -0.884462 0.000139319
    outer loop
      vertex -18.1578 -123.038 7.03401
      vertex -17.7169 -123.269 18
      vertex -18.1679 -123.031 18
    endloop
  endfacet
  facet normal -0.672847 -0.739781 -0.000142674
    outer loop
      vertex -18.1578 -123.038 7.03401
      vertex -18.1679 -123.031 18
      vertex -18.5441 -122.687 7.03401
    endloop
  endfacet
  facet normal -0.675114 -0.737713 0
    outer loop
      vertex -18.1679 -123.031 18
      vertex -18.5441 -122.687 18
      vertex -18.5441 -122.687 7.03401
    endloop
  endfacet
  facet normal -0.839733 -0.543 0
    outer loop
      vertex -18.5441 -122.687 7.03401
      vertex -18.5441 -122.687 18
      vertex -18.821 -122.259 18
    endloop
  endfacet
  facet normal -0.841396 -0.540419 -0.000142769
    outer loop
      vertex -18.5441 -122.687 7.03401
      vertex -18.821 -122.259 18
      vertex -18.8262 -122.248 7.03401
    endloop
  endfacet
  facet normal -0.949751 -0.313005 0.000139299
    outer loop
      vertex -18.8262 -122.248 7.03401
      vertex -18.821 -122.259 18
      vertex -18.9806 -121.774 18
    endloop
  endfacet
  facet normal -0.952592 -0.30425 -0.000278511
    outer loop
      vertex -18.8262 -122.248 7.03401
      vertex -18.9806 -121.774 18
      vertex -18.9851 -121.75 7.03401
    endloop
  endfacet
  facet normal -0.998035 -0.0626521 -0.00042374
    outer loop
      vertex -18.9806 -121.774 0
      vertex -18.9851 -121.75 7.03401
      vertex -19.0125 -121.266 0
    endloop
  endfacet
  facet normal -0.952592 -0.30425 0.000434197
    outer loop
      vertex -18.9806 -121.774 0
      vertex -18.8262 -122.248 7.03401
      vertex -18.9851 -121.75 7.03401
    endloop
  endfacet
  facet normal -0.949751 -0.313005 -0.000217166
    outer loop
      vertex -18.821 -122.259 0
      vertex -18.8262 -122.248 7.03401
      vertex -18.9806 -121.774 0
    endloop
  endfacet
  facet normal -0.841396 -0.540419 0.000222576
    outer loop
      vertex -18.821 -122.259 0
      vertex -18.5441 -122.687 7.03401
      vertex -18.8262 -122.248 7.03401
    endloop
  endfacet
  facet normal -0.998035 -0.0626521 0.000271803
    outer loop
      vertex -18.9851 -121.75 7.03401
      vertex -18.9806 -121.774 18
      vertex -19.0125 -121.266 18
    endloop
  endfacet
  facet normal -0.998879 -0.0473268 -0.000407824
    outer loop
      vertex -19.0098 -121.229 7.03401
      vertex -18.9851 -121.75 7.03401
      vertex -19.0125 -121.266 18
    endloop
  endfacet
  facet normal -0.981438 0.191778 -0.000619472
    outer loop
      vertex -19.0098 -121.229 7.03401
      vertex -18.9147 -120.765 0
      vertex -19.0125 -121.266 0
    endloop
  endfacet
  facet normal -0.998879 -0.0473268 0.000635796
    outer loop
      vertex -18.9851 -121.75 7.03401
      vertex -19.0098 -121.229 7.03401
      vertex -19.0125 -121.266 0
    endloop
  endfacet
  facet normal -0.981438 0.191778 0.000397353
    outer loop
      vertex -18.9147 -120.765 18
      vertex -19.0098 -121.229 7.03401
      vertex -19.0125 -121.266 18
    endloop
  endfacet
  facet normal -0.979631 0.200804 0
    outer loop
      vertex -18.9147 -120.765 18
      vertex -18.9147 -120.765 0
      vertex -19.0098 -121.229 7.03401
    endloop
  endfacet
  facet normal -0.466611 -0.884462 -0.000217197
    outer loop
      vertex -17.7169 -123.269 0
      vertex -18.1578 -123.038 7.03401
      vertex -18.1679 -123.031 0
    endloop
  endfacet
  facet normal -0.227791 -0.97371 -0.000424719
    outer loop
      vertex -17.2204 -123.385 0
      vertex -17.6938 -123.278 7.03401
      vertex -17.7169 -123.269 0
    endloop
  endfacet
  facet normal 0.0258537 -0.999666 -0.000619465
    outer loop
      vertex -16.7106 -123.372 0
      vertex -17.1837 -123.389 7.03401
      vertex -17.2204 -123.385 0
    endloop
  endfacet
  facet normal 0.0258537 -0.999666 0.000397349
    outer loop
      vertex -17.1837 -123.389 7.03401
      vertex -16.7106 -123.372 18
      vertex -17.2204 -123.385 18
    endloop
  endfacet
  facet normal -0.212806 -0.977094 -0.000407799
    outer loop
      vertex -17.1837 -123.389 7.03401
      vertex -17.2204 -123.385 18
      vertex -17.6938 -123.278 7.03401
    endloop
  endfacet
  facet normal -0.980037 0.198815 0
    outer loop
      vertex -18.9147 -120.765 0
      vertex -18.5558 -118.996 18
      vertex -18.5558 -118.996 0
    endloop
  endfacet
  facet normal -0.980037 0.198815 0
    outer loop
      vertex -18.5558 -118.996 18
      vertex -18.9147 -120.765 0
      vertex -18.9147 -120.765 18
    endloop
  endfacet
  facet normal -0.317555 -0.94824 0
    outer loop
      vertex -24.5237 -111.053 0
      vertex -22.8118 -111.627 18
      vertex -24.5237 -111.053 18
    endloop
  endfacet
  facet normal -0.317555 -0.94824 -0
    outer loop
      vertex -22.8118 -111.627 18
      vertex -24.5237 -111.053 0
      vertex -22.8118 -111.627 0
    endloop
  endfacet
  facet normal -0.999153 -0.0411377 0
    outer loop
      vertex -18.5558 -118.996 0
      vertex -18.6301 -117.192 18
      vertex -18.6301 -117.192 0
    endloop
  endfacet
  facet normal -0.999153 -0.0411377 0
    outer loop
      vertex -18.6301 -117.192 18
      vertex -18.5558 -118.996 0
      vertex -18.5558 -118.996 18
    endloop
  endfacet
  facet normal -0.960375 -0.278711 0
    outer loop
      vertex -18.6301 -117.192 0
      vertex -19.1332 -115.458 18
      vertex -19.1332 -115.458 0
    endloop
  endfacet
  facet normal -0.960375 -0.278711 0
    outer loop
      vertex -19.1332 -115.458 18
      vertex -18.6301 -117.192 0
      vertex -18.6301 -117.192 18
    endloop
  endfacet
  facet normal -0.86595 -0.50013 0
    outer loop
      vertex -19.1332 -115.458 0
      vertex -20.0362 -113.895 18
      vertex -20.0362 -113.895 0
    endloop
  endfacet
  facet normal -0.86595 -0.50013 0
    outer loop
      vertex -20.0362 -113.895 18
      vertex -19.1332 -115.458 0
      vertex -19.1332 -115.458 18
    endloop
  endfacet
  facet normal -0.721347 -0.692574 0
    outer loop
      vertex -20.0362 -113.895 0
      vertex -21.2865 -112.592 18
      vertex -21.2865 -112.592 0
    endloop
  endfacet
  facet normal -0.721347 -0.692574 0
    outer loop
      vertex -21.2865 -112.592 18
      vertex -20.0362 -113.895 0
      vertex -20.0362 -113.895 18
    endloop
  endfacet
  facet normal -0.534948 -0.844885 0
    outer loop
      vertex -22.8118 -111.627 0
      vertex -21.2865 -112.592 18
      vertex -22.8118 -111.627 18
    endloop
  endfacet
  facet normal -0.534948 -0.844885 -0
    outer loop
      vertex -21.2865 -112.592 18
      vertex -22.8118 -111.627 0
      vertex -21.2865 -112.592 0
    endloop
  endfacet
  facet normal 0.153086 -0.988213 0
    outer loop
      vertex -16.7106 -123.372 0
      vertex -6.3 -121.759 18
      vertex -16.7106 -123.372 18
    endloop
  endfacet
  facet normal 0.153086 -0.988213 0
    outer loop
      vertex -6.3 -121.759 18
      vertex -16.7106 -123.372 0
      vertex -6.3 -121.759 0
    endloop
  endfacet
  facet normal 0.445495 0.895284 -0
    outer loop
      vertex -52.4768 -78.8324 0
      vertex -55.4145 -77.3706 18
      vertex -52.4768 -78.8324 18
    endloop
  endfacet
  facet normal 0.445495 0.895284 0
    outer loop
      vertex -55.4145 -77.3706 18
      vertex -52.4768 -78.8324 0
      vertex -55.4145 -77.3706 0
    endloop
  endfacet
  facet normal 0.370615 0.928786 -0
    outer loop
      vertex -49.4292 -80.0485 0
      vertex -52.4768 -78.8324 18
      vertex -49.4292 -80.0485 18
    endloop
  endfacet
  facet normal 0.370615 0.928786 0
    outer loop
      vertex -52.4768 -78.8324 18
      vertex -49.4292 -80.0485 0
      vertex -52.4768 -78.8324 0
    endloop
  endfacet
  facet normal 0.213894 0.976857 -0
    outer loop
      vertex -43.0867 -81.7126 0
      vertex -46.2921 -81.0107 18
      vertex -43.0867 -81.7126 18
    endloop
  endfacet
  facet normal 0.213894 0.976857 0
    outer loop
      vertex -46.2921 -81.0107 18
      vertex -43.0867 -81.7126 0
      vertex -46.2921 -81.0107 0
    endloop
  endfacet
  facet normal 0.293244 0.956037 -0
    outer loop
      vertex -46.2921 -81.0107 0
      vertex -49.4292 -80.0485 18
      vertex -46.2921 -81.0107 18
    endloop
  endfacet
  facet normal 0.293244 0.956037 0
    outer loop
      vertex -49.4292 -80.0485 18
      vertex -46.2921 -81.0107 0
      vertex -49.4292 -80.0485 0
    endloop
  endfacet
  facet normal 0.173648 0.984808 -0
    outer loop
      vertex -6.3 -88.1991 0
      vertex -43.0867 -81.7126 18
      vertex -6.3 -88.1991 18
    endloop
  endfacet
  facet normal 0.173648 0.984808 0
    outer loop
      vertex -43.0867 -81.7126 18
      vertex -6.3 -88.1991 0
      vertex -43.0867 -81.7126 0
    endloop
  endfacet
  facet normal 0.974618 0.223876 0
    outer loop
      vertex -108.616 -34.5089 18
      vertex -109.503 -30.6475 0
      vertex -109.503 -30.6475 18
    endloop
  endfacet
  facet normal 0.974618 0.223876 0
    outer loop
      vertex -109.503 -30.6475 0
      vertex -108.616 -34.5089 18
      vertex -108.616 -34.5089 0
    endloop
  endfacet
  facet normal 0.94769 0.319192 0
    outer loop
      vertex -107.351 -38.2635 18
      vertex -108.616 -34.5089 0
      vertex -108.616 -34.5089 18
    endloop
  endfacet
  facet normal 0.94769 0.319192 0
    outer loop
      vertex -108.616 -34.5089 0
      vertex -107.351 -38.2635 18
      vertex -107.351 -38.2635 0
    endloop
  endfacet
  facet normal 0.911465 0.411378 0
    outer loop
      vertex -105.721 -41.8747 18
      vertex -107.351 -38.2635 0
      vertex -107.351 -38.2635 18
    endloop
  endfacet
  facet normal 0.911465 0.411378 0
    outer loop
      vertex -107.351 -38.2635 0
      vertex -105.721 -41.8747 18
      vertex -105.721 -41.8747 0
    endloop
  endfacet
  facet normal 0.866297 0.499529 0
    outer loop
      vertex -103.742 -45.3069 18
      vertex -105.721 -41.8747 0
      vertex -105.721 -41.8747 18
    endloop
  endfacet
  facet normal 0.866297 0.499529 0
    outer loop
      vertex -105.721 -41.8747 0
      vertex -103.742 -45.3069 18
      vertex -103.742 -45.3069 0
    endloop
  endfacet
  facet normal 0.812633 0.582775 0
    outer loop
      vertex -101.433 -48.5265 18
      vertex -103.742 -45.3069 0
      vertex -103.742 -45.3069 18
    endloop
  endfacet
  facet normal 0.812633 0.582775 0
    outer loop
      vertex -103.742 -45.3069 0
      vertex -101.433 -48.5265 18
      vertex -101.433 -48.5265 0
    endloop
  endfacet
  facet normal 0.750994 0.660309 0
    outer loop
      vertex -98.8174 -51.5018 18
      vertex -101.433 -48.5265 0
      vertex -101.433 -48.5265 18
    endloop
  endfacet
  facet normal 0.750994 0.660309 0
    outer loop
      vertex -101.433 -48.5265 0
      vertex -98.8174 -51.5018 18
      vertex -98.8174 -51.5018 0
    endloop
  endfacet
  facet normal 0.681987 0.731365 -0
    outer loop
      vertex -95.9197 -54.2038 0
      vertex -98.8174 -51.5018 18
      vertex -95.9197 -54.2038 18
    endloop
  endfacet
  facet normal 0.681987 0.731365 0
    outer loop
      vertex -98.8174 -51.5018 18
      vertex -95.9197 -54.2038 0
      vertex -98.8174 -51.5018 0
    endloop
  endfacet
  facet normal 0.606293 0.795242 -0
    outer loop
      vertex -92.7691 -56.6059 0
      vertex -95.9197 -54.2038 18
      vertex -92.7691 -56.6059 18
    endloop
  endfacet
  facet normal 0.606293 0.795242 0
    outer loop
      vertex -95.9197 -54.2038 18
      vertex -92.7691 -56.6059 0
      vertex -95.9197 -54.2038 0
    endloop
  endfacet
  facet normal 0.524646 0.85132 -0
    outer loop
      vertex -89.3962 -58.6845 0
      vertex -92.7691 -56.6059 18
      vertex -89.3962 -58.6845 18
    endloop
  endfacet
  facet normal 0.524646 0.85132 0
    outer loop
      vertex -92.7691 -56.6059 18
      vertex -89.3962 -58.6845 0
      vertex -92.7691 -56.6059 0
    endloop
  endfacet
  facet normal 0.481842 0.876258 -0
    outer loop
      vertex -55.4145 -77.3706 0
      vertex -89.3962 -58.6845 18
      vertex -55.4145 -77.3706 18
    endloop
  endfacet
  facet normal 0.481842 0.876258 0
    outer loop
      vertex -89.3962 -58.6845 18
      vertex -55.4145 -77.3706 0
      vertex -89.3962 -58.6845 0
    endloop
  endfacet
  facet normal 0.984509 0.175333 0
    outer loop
      vertex -109.503 -30.6475 18
      vertex -113.892 -6 0
      vertex -113.892 -6 18
    endloop
  endfacet
  facet normal 0.984509 0.175333 0
    outer loop
      vertex -113.892 -6 0
      vertex -109.503 -30.6475 18
      vertex -109.503 -30.6475 0
    endloop
  endfacet
  facet normal 0 0 1
    outer loop
      vertex -124 1.5 18
      vertex -126.5 -3.5 18
      vertex -124 -3.5 18
    endloop
  endfacet
  facet normal 0 0 1
    outer loop
      vertex -131.5 -6 18
      vertex -126.5 -6 18
      vertex -126.5 -3.5 18
    endloop
  endfacet
  facet normal 0 0 1
    outer loop
      vertex -126.5 -6 18
      vertex -131.5 -6 18
      vertex -126.526 -56.6122 18
    endloop
  endfacet
  facet normal 0 0 1
    outer loop
      vertex -126.526 -56.6122 18
      vertex -131.5 -6 18
      vertex -128.298 -56.8459 18
    endloop
  endfacet
  facet normal 0 0 1
    outer loop
      vertex -133.082 -57.9443 18
      vertex -128.298 -56.8459 18
      vertex -131.5 -6 18
    endloop
  endfacet
  facet normal 0 0 1
    outer loop
      vertex -131.5 -6 18
      vertex -126.5 -3.5 18
      vertex -131.5 -3.5 18
    endloop
  endfacet
  facet normal 0 0 1
    outer loop
      vertex -124 1.5 18
      vertex -131.5 -3.5 18
      vertex -126.5 -3.5 18
    endloop
  endfacet
  facet normal -0 0 1
    outer loop
      vertex -134 1.5 18
      vertex -131.5 -3.5 18
      vertex -124 1.5 18
    endloop
  endfacet
  facet normal 0 0 1
    outer loop
      vertex -131.5 -3.5 18
      vertex -134 1.5 18
      vertex -134 -3.5 18
    endloop
  endfacet
  facet normal 0 0 1
    outer loop
      vertex -95.9197 -54.2038 18
      vertex -119.022 -63.0015 18
      vertex -118.97 -64.7887 18
    endloop
  endfacet
  facet normal 0 0 1
    outer loop
      vertex -109.503 -30.6475 18
      vertex -119.495 -61.2774 18
      vertex -119.022 -63.0015 18
    endloop
  endfacet
  facet normal 0 0 1
    outer loop
      vertex -109.503 -30.6475 18
      vertex -120.363 -59.7144 18
      vertex -119.495 -61.2774 18
    endloop
  endfacet
  facet normal 0 0 1
    outer loop
      vertex -109.503 -30.6475 18
      vertex -121.577 -58.4013 18
      vertex -120.363 -59.7144 18
    endloop
  endfacet
  facet normal 0 0 1
    outer loop
      vertex -109.503 -30.6475 18
      vertex -123.067 -57.4127 18
      vertex -121.577 -58.4013 18
    endloop
  endfacet
  facet normal 0 0 1
    outer loop
      vertex -109.503 -30.6475 18
      vertex -124.748 -56.8048 18
      vertex -123.067 -57.4127 18
    endloop
  endfacet
  facet normal 0 0 1
    outer loop
      vertex -126.526 -56.6122 18
      vertex -109.503 -30.6475 18
      vertex -126.5 -6 18
    endloop
  endfacet
  facet normal 0 0 1
    outer loop
      vertex -109.503 -30.6475 18
      vertex -126.526 -56.6122 18
      vertex -124.748 -56.8048 18
    endloop
  endfacet
  facet normal 0 0 1
    outer loop
      vertex -6.3 -88.1991 18
      vertex -8.2 -100.7 18
      vertex -6.3 -103.2 18
    endloop
  endfacet
  facet normal 0 0 1
    outer loop
      vertex -6.3 -88.1991 18
      vertex -13.8 -100.7 18
      vertex -8.2 -100.7 18
    endloop
  endfacet
  facet normal 0 0 1
    outer loop
      vertex -22.8118 -111.627 18
      vertex -13.8 -111.3 18
      vertex -13.8 -100.7 18
    endloop
  endfacet
  facet normal 0 -0 1
    outer loop
      vertex -18.5558 -118.996 18
      vertex -13.8 -111.3 18
      vertex -18.6301 -117.192 18
    endloop
  endfacet
  facet normal 0 0 1
    outer loop
      vertex -13.8 -111.3 18
      vertex -18.5558 -118.996 18
      vertex -16.7106 -123.372 18
    endloop
  endfacet
  facet normal -0 0 1
    outer loop
      vertex -18.9147 -120.765 18
      vertex -16.7106 -123.372 18
      vertex -18.5558 -118.996 18
    endloop
  endfacet
  facet normal 0 0 1
    outer loop
      vertex -17.2204 -123.385 18
      vertex -18.9147 -120.765 18
      vertex -17.7169 -123.269 18
    endloop
  endfacet
  facet normal 0 0 1
    outer loop
      vertex -17.7169 -123.269 18
      vertex -18.9147 -120.765 18
      vertex -18.1679 -123.031 18
    endloop
  endfacet
  facet normal 0 0 1
    outer loop
      vertex -16.7106 -123.372 18
      vertex -18.9147 -120.765 18
      vertex -17.2204 -123.385 18
    endloop
  endfacet
  facet normal 0 0 1
    outer loop
      vertex -13.8 -111.3 18
      vertex -19.1332 -115.458 18
      vertex -18.6301 -117.192 18
    endloop
  endfacet
  facet normal 0 0 1
    outer loop
      vertex -13.8 -111.3 18
      vertex -20.0362 -113.895 18
      vertex -19.1332 -115.458 18
    endloop
  endfacet
  facet normal 0 0 1
    outer loop
      vertex -13.8 -111.3 18
      vertex -21.2865 -112.592 18
      vertex -20.0362 -113.895 18
    endloop
  endfacet
  facet normal 0 0 1
    outer loop
      vertex -43.0867 -81.7126 18
      vertex -13.8 -100.7 18
      vertex -6.3 -88.1991 18
    endloop
  endfacet
  facet normal 0 0 1
    outer loop
      vertex -13.8 -111.3 18
      vertex -22.8118 -111.627 18
      vertex -21.2865 -112.592 18
    endloop
  endfacet
  facet normal 0 0 1
    outer loop
      vertex -13.8 -100.7 18
      vertex -24.5237 -111.053 18
      vertex -22.8118 -111.627 18
    endloop
  endfacet
  facet normal 0 0 1
    outer loop
      vertex -13.8 -100.7 18
      vertex -26.3285 -111.007 18
      vertex -24.5237 -111.053 18
    endloop
  endfacet
  facet normal 0 0 1
    outer loop
      vertex -13.8 -100.7 18
      vertex -43.0867 -81.7126 18
      vertex -26.3285 -111.007 18
    endloop
  endfacet
  facet normal 0 0 1
    outer loop
      vertex -26.3285 -111.007 18
      vertex -43.0867 -81.7126 18
      vertex -28.0921 -111.392 18
    endloop
  endfacet
  facet normal 0 0 1
    outer loop
      vertex -28.0921 -111.392 18
      vertex -43.0867 -81.7126 18
      vertex -29.7125 -112.189 18
    endloop
  endfacet
  facet normal 0 0 1
    outer loop
      vertex -36.079 -119.957 18
      vertex -33.1161 -118.261 18
      vertex -32.8482 -116.476 18
    endloop
  endfacet
  facet normal 0 0 1
    outer loop
      vertex -33.1161 -118.261 18
      vertex -36.079 -119.957 18
      vertex -33.1954 -118.765 18
    endloop
  endfacet
  facet normal 0 0 1
    outer loop
      vertex -33.1954 -118.765 18
      vertex -36.079 -119.957 18
      vertex -33.3994 -119.232 18
    endloop
  endfacet
  facet normal 0 0 1
    outer loop
      vertex -33.3994 -119.232 18
      vertex -36.079 -119.957 18
      vertex -33.7151 -119.633 18
    endloop
  endfacet
  facet normal 0 0 1
    outer loop
      vertex -33.7151 -119.633 18
      vertex -36.079 -119.957 18
      vertex -34.1217 -119.94 18
    endloop
  endfacet
  facet normal 0 0 1
    outer loop
      vertex -36.079 -119.957 18
      vertex -32.8482 -116.476 18
      vertex -32.1615 -114.806 18
    endloop
  endfacet
  facet normal 0 0 1
    outer loop
      vertex -34.1217 -119.94 18
      vertex -36.079 -119.957 18
      vertex -34.593 -120.135 18
    endloop
  endfacet
  facet normal 0 0 1
    outer loop
      vertex -34.593 -120.135 18
      vertex -36.079 -119.957 18
      vertex -35.0982 -120.204 18
    endloop
  endfacet
  facet normal 0 0 1
    outer loop
      vertex -35.0982 -120.204 18
      vertex -36.079 -119.957 18
      vertex -35.6045 -120.144 18
    endloop
  endfacet
  facet normal 0 0 1
    outer loop
      vertex -43.0867 -81.7126 18
      vertex -32.1615 -114.806 18
      vertex -31.0957 -113.349 18
    endloop
  endfacet
  facet normal 0 0 1
    outer loop
      vertex -29.7125 -112.189 18
      vertex -43.0867 -81.7126 18
      vertex -31.0957 -113.349 18
    endloop
  endfacet
  facet normal 0 0 1
    outer loop
      vertex -32.1615 -114.806 18
      vertex -43.0867 -81.7126 18
      vertex -46.2921 -81.0107 18
    endloop
  endfacet
  facet normal 0 0 1
    outer loop
      vertex -32.1615 -114.806 18
      vertex -46.2921 -81.0107 18
      vertex -36.079 -119.957 18
    endloop
  endfacet
  facet normal 0 0 1
    outer loop
      vertex -49.4292 -80.0485 18
      vertex -36.079 -119.957 18
      vertex -46.2921 -81.0107 18
    endloop
  endfacet
  facet normal 0 0 1
    outer loop
      vertex -52.4768 -78.8324 18
      vertex -36.079 -119.957 18
      vertex -49.4292 -80.0485 18
    endloop
  endfacet
  facet normal 0 0 1
    outer loop
      vertex -55.4145 -77.3706 18
      vertex -36.079 -119.957 18
      vertex -52.4768 -78.8324 18
    endloop
  endfacet
  facet normal -0 0 1
    outer loop
      vertex -122.664 -72.3452 18
      vertex -55.4145 -77.3706 18
      vertex -89.3962 -58.6845 18
    endloop
  endfacet
  facet normal 0 0 1
    outer loop
      vertex -119.342 -66.5375 18
      vertex -89.3962 -58.6845 18
      vertex -92.7691 -56.6059 18
    endloop
  endfacet
  facet normal 0 0 1
    outer loop
      vertex -118.97 -64.7887 18
      vertex -92.7691 -56.6059 18
      vertex -95.9197 -54.2038 18
    endloop
  endfacet
  facet normal 0 0 1
    outer loop
      vertex -119.022 -63.0015 18
      vertex -95.9197 -54.2038 18
      vertex -98.8174 -51.5018 18
    endloop
  endfacet
  facet normal -0 0 1
    outer loop
      vertex -126.5 -6 18
      vertex -109.503 -30.6475 18
      vertex -113.892 -6 18
    endloop
  endfacet
  facet normal 0 0 1
    outer loop
      vertex -119.022 -63.0015 18
      vertex -108.616 -34.5089 18
      vertex -109.503 -30.6475 18
    endloop
  endfacet
  facet normal 0 0 1
    outer loop
      vertex -119.022 -63.0015 18
      vertex -107.351 -38.2635 18
      vertex -108.616 -34.5089 18
    endloop
  endfacet
  facet normal 0 0 1
    outer loop
      vertex -119.022 -63.0015 18
      vertex -105.721 -41.8747 18
      vertex -107.351 -38.2635 18
    endloop
  endfacet
  facet normal 0 0 1
    outer loop
      vertex -119.022 -63.0015 18
      vertex -103.742 -45.3069 18
      vertex -105.721 -41.8747 18
    endloop
  endfacet
  facet normal 0 0 1
    outer loop
      vertex -119.022 -63.0015 18
      vertex -101.433 -48.5265 18
      vertex -103.742 -45.3069 18
    endloop
  endfacet
  facet normal 0 0 1
    outer loop
      vertex -119.022 -63.0015 18
      vertex -98.8174 -51.5018 18
      vertex -101.433 -48.5265 18
    endloop
  endfacet
  facet normal 0 0 1
    outer loop
      vertex -92.7691 -56.6059 18
      vertex -118.97 -64.7887 18
      vertex -119.342 -66.5375 18
    endloop
  endfacet
  facet normal 0 0 1
    outer loop
      vertex -89.3962 -58.6845 18
      vertex -119.342 -66.5375 18
      vertex -120.118 -68.1483 18
    endloop
  endfacet
  facet normal 0 0 1
    outer loop
      vertex -89.3962 -58.6845 18
      vertex -120.118 -68.1483 18
      vertex -122.664 -72.3452 18
    endloop
  endfacet
  facet normal 0 0 1
    outer loop
      vertex -122.664 -72.3452 18
      vertex -120.118 -68.1483 18
      vertex -121.253 -69.5298 18
    endloop
  endfacet
  facet normal 0 0 1
    outer loop
      vertex -55.4145 -77.3706 18
      vertex -122.664 -72.3452 18
      vertex -36.079 -119.957 18
    endloop
  endfacet
  facet normal -0 0 1
    outer loop
      vertex -122.683 -70.6033 18
      vertex -122.664 -72.3452 18
      vertex -121.253 -69.5298 18
    endloop
  endfacet
  facet normal 0 0 1
    outer loop
      vertex -122.683 -70.6033 18
      vertex -122.855 -72.2089 18
      vertex -122.664 -72.3452 18
    endloop
  endfacet
  facet normal -0 0 1
    outer loop
      vertex -122.871 -70.7437 18
      vertex -122.855 -72.2089 18
      vertex -122.683 -70.6033 18
    endloop
  endfacet
  facet normal 0 0 1
    outer loop
      vertex -122.871 -70.7437 18
      vertex -123.008 -72.032 18
      vertex -122.855 -72.2089 18
    endloop
  endfacet
  facet normal -0 0 1
    outer loop
      vertex -123.02 -70.9239 18
      vertex -123.008 -72.032 18
      vertex -122.871 -70.7437 18
    endloop
  endfacet
  facet normal 0 0 1
    outer loop
      vertex -123.02 -70.9239 18
      vertex -123.117 -71.8242 18
      vertex -123.008 -72.032 18
    endloop
  endfacet
  facet normal -0 0 1
    outer loop
      vertex -123.124 -71.134 18
      vertex -123.117 -71.8242 18
      vertex -123.02 -70.9239 18
    endloop
  endfacet
  facet normal 0 0 1
    outer loop
      vertex -123.124 -71.134 18
      vertex -123.174 -71.5969 18
      vertex -123.117 -71.8242 18
    endloop
  endfacet
  facet normal 0 -0 1
    outer loop
      vertex -123.174 -71.5969 18
      vertex -123.124 -71.134 18
      vertex -123.176 -71.3625 18
    endloop
  endfacet
  facet normal 0 0 1
    outer loop
      vertex -6.3 -103.2 18
      vertex -8.2 -100.7 18
      vertex -8.2 -103.2 18
    endloop
  endfacet
  facet normal 0 0 1
    outer loop
      vertex -8.2 -111.3 18
      vertex -6.3 -108.8 18
      vertex -8.2 -108.8 18
    endloop
  endfacet
  facet normal 0 0 1
    outer loop
      vertex -6.3 -108.8 18
      vertex -8.2 -111.3 18
      vertex -6.3 -121.759 18
    endloop
  endfacet
  facet normal -0 0 1
    outer loop
      vertex -13.8 -111.3 18
      vertex -6.3 -121.759 18
      vertex -8.2 -111.3 18
    endloop
  endfacet
  facet normal 0 0 1
    outer loop
      vertex -6.3 -121.759 18
      vertex -13.8 -111.3 18
      vertex -16.7106 -123.372 18
    endloop
  endfacet
  facet normal 0 0 1
    outer loop
      vertex -18.1679 -123.031 18
      vertex -18.9147 -120.765 18
      vertex -18.5441 -122.687 18
    endloop
  endfacet
  facet normal 0 0 1
    outer loop
      vertex -18.5441 -122.687 18
      vertex -18.9147 -120.765 18
      vertex -18.821 -122.259 18
    endloop
  endfacet
  facet normal 0 0 1
    outer loop
      vertex -18.9147 -120.765 18
      vertex -18.9806 -121.774 18
      vertex -18.821 -122.259 18
    endloop
  endfacet
  facet normal 0 -0 1
    outer loop
      vertex -18.9806 -121.774 18
      vertex -18.9147 -120.765 18
      vertex -19.0125 -121.266 18
    endloop
  endfacet
  facet normal 0 0 1
    outer loop
      vertex -128.298 -56.8459 18
      vertex -133.082 -57.9443 18
      vertex -129.965 -57.4924 18
    endloop
  endfacet
  facet normal 0 0 1
    outer loop
      vertex -129.965 -57.4924 18
      vertex -133.082 -57.9443 18
      vertex -131.432 -58.5152 18
    endloop
  endfacet
  facet normal 0 0 1
    outer loop
      vertex -131.432 -58.5152 18
      vertex -133.082 -57.9443 18
      vertex -131.625 -58.6501 18
    endloop
  endfacet
  facet normal 0 0 1
    outer loop
      vertex -131.625 -58.6501 18
      vertex -133.082 -57.9443 18
      vertex -131.844 -58.7362 18
    endloop
  endfacet
  facet normal 0 0 1
    outer loop
      vertex -131.844 -58.7362 18
      vertex -133.082 -57.9443 18
      vertex -132.077 -58.7688 18
    endloop
  endfacet
  facet normal 0 0 1
    outer loop
      vertex -132.077 -58.7688 18
      vertex -133.082 -57.9443 18
      vertex -132.311 -58.7459 18
    endloop
  endfacet
  facet normal 0 0 1
    outer loop
      vertex -132.311 -58.7459 18
      vertex -133.082 -57.9443 18
      vertex -132.533 -58.669 18
    endloop
  endfacet
  facet normal 0 0 1
    outer loop
      vertex -132.533 -58.669 18
      vertex -133.082 -57.9443 18
      vertex -132.732 -58.5422 18
    endloop
  endfacet
  facet normal 0 0 1
    outer loop
      vertex -132.732 -58.5422 18
      vertex -133.082 -57.9443 18
      vertex -132.895 -58.3726 18
    endloop
  endfacet
  facet normal 0 0 1
    outer loop
      vertex -132.895 -58.3726 18
      vertex -133.082 -57.9443 18
      vertex -133.014 -58.1696 18
    endloop
  endfacet
  facet normal 0 -0 1
    outer loop
      vertex -133.082 -57.9443 18
      vertex -131.5 -6 18
      vertex -142.333 -6 18
    endloop
  endfacet
  facet normal 0.989232 -0.146359 0
    outer loop
      vertex -33.1161 -118.261 0
      vertex -33.1161 -118.261 18
      vertex -33.1854 -118.729 7.03401
    endloop
  endfacet
  facet normal 0.922453 -0.38611 0.000635928
    outer loop
      vertex -33.1954 -118.765 0
      vertex -33.1854 -118.729 7.03401
      vertex -33.387 -119.211 7.03401
    endloop
  endfacet
  facet normal 0.791091 -0.611698 0.000434284
    outer loop
      vertex -33.3994 -119.232 0
      vertex -33.387 -119.211 7.03401
      vertex -33.7063 -119.624 7.03401
    endloop
  endfacet
  facet normal 0.605806 -0.795612 0.000222123
    outer loop
      vertex -33.7151 -119.633 0
      vertex -33.7063 -119.624 7.03401
      vertex -34.1217 -119.94 7.03401
    endloop
  endfacet
  facet normal 0.382089 -0.924125 0
    outer loop
      vertex -34.1217 -119.94 0
      vertex -34.1217 -119.94 7.03401
      vertex -34.593 -120.135 0
    endloop
  endfacet
  facet normal 0.603365 -0.797465 0
    outer loop
      vertex -33.7151 -119.633 0
      vertex -34.1217 -119.94 7.03401
      vertex -34.1217 -119.94 0
    endloop
  endfacet
  facet normal 0.916417 -0.400225 0.000271819
    outer loop
      vertex -33.387 -119.211 7.03401
      vertex -33.1954 -118.765 18
      vertex -33.3994 -119.232 18
    endloop
  endfacet
  facet normal 0.791091 -0.611698 -0.000278567
    outer loop
      vertex -33.387 -119.211 7.03401
      vertex -33.3994 -119.232 18
      vertex -33.7063 -119.624 7.03401
    endloop
  endfacet
  facet normal 0.785422 -0.61896 0.000139612
    outer loop
      vertex -33.7063 -119.624 7.03401
      vertex -33.3994 -119.232 18
      vertex -33.7151 -119.633 18
    endloop
  endfacet
  facet normal 0.605806 -0.795612 -0.000142478
    outer loop
      vertex -33.7063 -119.624 7.03401
      vertex -33.7151 -119.633 18
      vertex -34.1217 -119.94 7.03401
    endloop
  endfacet
  facet normal 0.603365 -0.797465 0
    outer loop
      vertex -33.7151 -119.633 18
      vertex -34.1217 -119.94 18
      vertex -34.1217 -119.94 7.03401
    endloop
  endfacet
  facet normal 0.382089 -0.924125 0
    outer loop
      vertex -34.1217 -119.94 7.03401
      vertex -34.1217 -119.94 18
      vertex -34.593 -120.135 18
    endloop
  endfacet
  facet normal 0.379258 -0.925291 -0.000142372
    outer loop
      vertex -34.1217 -119.94 7.03401
      vertex -34.593 -120.135 18
      vertex -34.6048 -120.138 7.03401
    endloop
  endfacet
  facet normal 0.135987 -0.990711 0.000139664
    outer loop
      vertex -34.6048 -120.138 7.03401
      vertex -34.593 -120.135 18
      vertex -35.0982 -120.204 18
    endloop
  endfacet
  facet normal 0.126838 -0.991923 -0.000279231
    outer loop
      vertex -34.6048 -120.138 7.03401
      vertex -35.0982 -120.204 18
      vertex -35.1227 -120.204 7.03401
    endloop
  endfacet
  facet normal -0.118989 -0.992895 -0.000422986
    outer loop
      vertex -35.0982 -120.204 0
      vertex -35.1227 -120.204 7.03401
      vertex -35.6045 -120.144 0
    endloop
  endfacet
  facet normal 0.126838 -0.991923 0.00043532
    outer loop
      vertex -35.0982 -120.204 0
      vertex -34.6048 -120.138 7.03401
      vertex -35.1227 -120.204 7.03401
    endloop
  endfacet
  facet normal 0.135987 -0.990711 -0.000217736
    outer loop
      vertex -34.593 -120.135 0
      vertex -34.6048 -120.138 7.03401
      vertex -35.0982 -120.204 0
    endloop
  endfacet
  facet normal 0.379258 -0.925291 0.000221957
    outer loop
      vertex -34.593 -120.135 0
      vertex -34.1217 -119.94 7.03401
      vertex -34.6048 -120.138 7.03401
    endloop
  endfacet
  facet normal -0.118989 -0.992895 0.00027132
    outer loop
      vertex -35.1227 -120.204 7.03401
      vertex -35.0982 -120.204 18
      vertex -35.6045 -120.144 18
    endloop
  endfacet
  facet normal -0.134204 -0.990954 -0.000407834
    outer loop
      vertex -35.1227 -120.204 7.03401
      vertex -35.6045 -120.144 18
      vertex -35.6401 -120.134 7.03401
    endloop
  endfacet
  facet normal -0.3662 -0.930536 -0.000619524
    outer loop
      vertex -35.6045 -120.144 0
      vertex -35.6401 -120.134 7.03401
      vertex -36.079 -119.957 0
    endloop
  endfacet
  facet normal -0.134204 -0.990954 0.000635811
    outer loop
      vertex -35.6045 -120.144 0
      vertex -35.1227 -120.204 7.03401
      vertex -35.6401 -120.134 7.03401
    endloop
  endfacet
  facet normal -0.3662 -0.930536 0.000397387
    outer loop
      vertex -35.6401 -120.134 7.03401
      vertex -35.6045 -120.144 18
      vertex -36.079 -119.957 18
    endloop
  endfacet
  facet normal -0.374751 -0.927126 0
    outer loop
      vertex -35.6401 -120.134 7.03401
      vertex -36.079 -119.957 18
      vertex -36.079 -119.957 0
    endloop
  endfacet
  facet normal 0.785422 -0.61896 -0.000217655
    outer loop
      vertex -33.3994 -119.232 0
      vertex -33.7063 -119.624 7.03401
      vertex -33.7151 -119.633 0
    endloop
  endfacet
  facet normal 0.916417 -0.400225 -0.000423764
    outer loop
      vertex -33.1954 -118.765 0
      vertex -33.387 -119.211 7.03401
      vertex -33.3994 -119.232 0
    endloop
  endfacet
  facet normal 0.987842 -0.155459 -0.000619507
    outer loop
      vertex -33.1161 -118.261 0
      vertex -33.1854 -118.729 7.03401
      vertex -33.1954 -118.765 0
    endloop
  endfacet
  facet normal 0.922453 -0.38611 -0.000407909
    outer loop
      vertex -33.1854 -118.729 7.03401
      vertex -33.1954 -118.765 18
      vertex -33.387 -119.211 7.03401
    endloop
  endfacet
  facet normal 0.987842 -0.155459 0.000397376
    outer loop
      vertex -33.1854 -118.729 7.03401
      vertex -33.1161 -118.261 18
      vertex -33.1954 -118.765 18
    endloop
  endfacet
  facet normal 0.988932 -0.148368 0
    outer loop
      vertex -33.1161 -118.261 18
      vertex -32.8482 -116.476 0
      vertex -32.8482 -116.476 18
    endloop
  endfacet
  facet normal 0.988932 -0.148368 0
    outer loop
      vertex -32.8482 -116.476 0
      vertex -33.1161 -118.261 18
      vertex -33.1161 -118.261 0
    endloop
  endfacet
  facet normal 0.924827 -0.380388 0
    outer loop
      vertex -32.8482 -116.476 18
      vertex -32.1615 -114.806 0
      vertex -32.1615 -114.806 18
    endloop
  endfacet
  facet normal 0.924827 -0.380388 0
    outer loop
      vertex -32.1615 -114.806 0
      vertex -32.8482 -116.476 18
      vertex -32.8482 -116.476 0
    endloop
  endfacet
  facet normal 0.807133 -0.590369 0
    outer loop
      vertex -32.1615 -114.806 18
      vertex -31.0957 -113.349 0
      vertex -31.0957 -113.349 18
    endloop
  endfacet
  facet normal 0.807133 -0.590369 0
    outer loop
      vertex -31.0957 -113.349 0
      vertex -32.1615 -114.806 18
      vertex -32.1615 -114.806 0
    endloop
  endfacet
  facet normal 0.642672 -0.766142 0
    outer loop
      vertex -31.0957 -113.349 0
      vertex -29.7125 -112.189 18
      vertex -31.0957 -113.349 18
    endloop
  endfacet
  facet normal 0.642672 -0.766142 0
    outer loop
      vertex -29.7125 -112.189 18
      vertex -31.0957 -113.349 0
      vertex -29.7125 -112.189 0
    endloop
  endfacet
  facet normal 0.440971 -0.897521 0
    outer loop
      vertex -29.7125 -112.189 0
      vertex -28.0921 -111.392 18
      vertex -29.7125 -112.189 18
    endloop
  endfacet
  facet normal 0.440971 -0.897521 0
    outer loop
      vertex -28.0921 -111.392 18
      vertex -29.7125 -112.189 0
      vertex -28.0921 -111.392 0
    endloop
  endfacet
  facet normal 0.21372 -0.976895 0
    outer loop
      vertex -28.0921 -111.392 0
      vertex -26.3285 -111.007 18
      vertex -28.0921 -111.392 18
    endloop
  endfacet
  facet normal 0.21372 -0.976895 0
    outer loop
      vertex -26.3285 -111.007 18
      vertex -28.0921 -111.392 0
      vertex -26.3285 -111.007 0
    endloop
  endfacet
  facet normal -0.0259136 -0.999664 0
    outer loop
      vertex -26.3285 -111.007 0
      vertex -24.5237 -111.053 18
      vertex -26.3285 -111.007 18
    endloop
  endfacet
  facet normal -0.0259136 -0.999664 -0
    outer loop
      vertex -24.5237 -111.053 18
      vertex -26.3285 -111.007 0
      vertex -24.5237 -111.053 0
    endloop
  endfacet
  facet normal 0 0 -1
    outer loop
      vertex -18.9147 -120.765 0
      vertex -16.7106 -123.372 0
      vertex -18.821 -122.259 0
    endloop
  endfacet
  facet normal 0 0 -1
    outer loop
      vertex -16.7106 -123.372 0
      vertex -18.9147 -120.765 0
      vertex -18.5558 -118.996 0
    endloop
  endfacet
  facet normal 0 0 -1
    outer loop
      vertex -18.9806 -121.774 0
      vertex -18.9147 -120.765 0
      vertex -18.821 -122.259 0
    endloop
  endfacet
  facet normal 0 0 -1
    outer loop
      vertex -18.9147 -120.765 0
      vertex -18.9806 -121.774 0
      vertex -19.0125 -121.266 0
    endloop
  endfacet
  facet normal 0 0 -1
    outer loop
      vertex -123.067 -57.4127 0
      vertex -105.721 -41.8747 0
      vertex -121.577 -58.4013 0
    endloop
  endfacet
  facet normal -0 0 -1
    outer loop
      vertex -105.721 -41.8747 0
      vertex -123.067 -57.4127 0
      vertex -107.351 -38.2635 0
    endloop
  endfacet
  facet normal 0 0 -1
    outer loop
      vertex -124.748 -56.8048 0
      vertex -107.351 -38.2635 0
      vertex -123.067 -57.4127 0
    endloop
  endfacet
  facet normal -0 0 -1
    outer loop
      vertex -107.351 -38.2635 0
      vertex -124.748 -56.8048 0
      vertex -108.616 -34.5089 0
    endloop
  endfacet
  facet normal 0 0 -1
    outer loop
      vertex -126.526 -56.6122 0
      vertex -108.616 -34.5089 0
      vertex -124.748 -56.8048 0
    endloop
  endfacet
  facet normal -0 0 -1
    outer loop
      vertex -108.616 -34.5089 0
      vertex -126.526 -56.6122 0
      vertex -109.503 -30.6475 0
    endloop
  endfacet
  facet normal 0 0 -1
    outer loop
      vertex -109.503 -30.6475 0
      vertex -126.5 -6 0
      vertex -113.892 -6 0
    endloop
  endfacet
  facet normal 0 0 -1
    outer loop
      vertex -109.503 -30.6475 0
      vertex -131.5 -6 0
      vertex -126.5 -6 0
    endloop
  endfacet
  facet normal 0 0 -1
    outer loop
      vertex -128.298 -56.8459 0
      vertex -109.503 -30.6475 0
      vertex -126.526 -56.6122 0
    endloop
  endfacet
  facet normal 0 0 -1
    outer loop
      vertex -6.3 -121.759 0
      vertex -8.2 -111.3 0
      vertex -6.3 -108.8 0
    endloop
  endfacet
  facet normal 0 0 -1
    outer loop
      vertex -6.3 -121.759 0
      vertex -13.8 -111.3 0
      vertex -8.2 -111.3 0
    endloop
  endfacet
  facet normal 0 0 -1
    outer loop
      vertex -6.3 -121.759 0
      vertex -18.5558 -118.996 0
      vertex -13.8 -111.3 0
    endloop
  endfacet
  facet normal 0 0 -1
    outer loop
      vertex -18.5558 -118.996 0
      vertex -6.3 -121.759 0
      vertex -16.7106 -123.372 0
    endloop
  endfacet
  facet normal -0 0 -1
    outer loop
      vertex -6.3 -108.8 0
      vertex -8.2 -111.3 0
      vertex -8.2 -108.8 0
    endloop
  endfacet
  facet normal 0 0 -1
    outer loop
      vertex -8.2 -100.7 0
      vertex -6.3 -103.2 0
      vertex -8.2 -103.2 0
    endloop
  endfacet
  facet normal 0 0 -1
    outer loop
      vertex -6.3 -103.2 0
      vertex -8.2 -100.7 0
      vertex -6.3 -88.1991 0
    endloop
  endfacet
  facet normal 0 0 -1
    outer loop
      vertex -13.8 -100.7 0
      vertex -6.3 -88.1991 0
      vertex -8.2 -100.7 0
    endloop
  endfacet
  facet normal 0 0 -1
    outer loop
      vertex -18.5441 -122.687 0
      vertex -16.7106 -123.372 0
      vertex -17.2204 -123.385 0
    endloop
  endfacet
  facet normal 0 0 -1
    outer loop
      vertex -18.5441 -122.687 0
      vertex -17.2204 -123.385 0
      vertex -17.7169 -123.269 0
    endloop
  endfacet
  facet normal 0 0 -1
    outer loop
      vertex -18.5441 -122.687 0
      vertex -17.7169 -123.269 0
      vertex -18.1679 -123.031 0
    endloop
  endfacet
  facet normal 0 0 -1
    outer loop
      vertex -18.821 -122.259 0
      vertex -16.7106 -123.372 0
      vertex -18.5441 -122.687 0
    endloop
  endfacet
  facet normal 0 0 -1
    outer loop
      vertex -13.8 -111.3 0
      vertex -18.5558 -118.996 0
      vertex -18.6301 -117.192 0
    endloop
  endfacet
  facet normal 0 0 -1
    outer loop
      vertex -19.1332 -115.458 0
      vertex -13.8 -111.3 0
      vertex -18.6301 -117.192 0
    endloop
  endfacet
  facet normal 0 0 -1
    outer loop
      vertex -20.0362 -113.895 0
      vertex -13.8 -111.3 0
      vertex -19.1332 -115.458 0
    endloop
  endfacet
  facet normal 0 0 -1
    outer loop
      vertex -21.2865 -112.592 0
      vertex -13.8 -111.3 0
      vertex -20.0362 -113.895 0
    endloop
  endfacet
  facet normal 0 0 -1
    outer loop
      vertex -22.8118 -111.627 0
      vertex -13.8 -111.3 0
      vertex -21.2865 -112.592 0
    endloop
  endfacet
  facet normal -0 0 -1
    outer loop
      vertex -13.8 -111.3 0
      vertex -22.8118 -111.627 0
      vertex -13.8 -100.7 0
    endloop
  endfacet
  facet normal 0 0 -1
    outer loop
      vertex -24.5237 -111.053 0
      vertex -13.8 -100.7 0
      vertex -22.8118 -111.627 0
    endloop
  endfacet
  facet normal 0 0 -1
    outer loop
      vertex -26.3285 -111.007 0
      vertex -13.8 -100.7 0
      vertex -24.5237 -111.053 0
    endloop
  endfacet
  facet normal 0 0 -1
    outer loop
      vertex -43.0867 -81.7126 0
      vertex -13.8 -100.7 0
      vertex -26.3285 -111.007 0
    endloop
  endfacet
  facet normal 0 0 -1
    outer loop
      vertex -43.0867 -81.7126 0
      vertex -26.3285 -111.007 0
      vertex -28.0921 -111.392 0
    endloop
  endfacet
  facet normal 0 0 -1
    outer loop
      vertex -43.0867 -81.7126 0
      vertex -28.0921 -111.392 0
      vertex -29.7125 -112.189 0
    endloop
  endfacet
  facet normal 0 0 -1
    outer loop
      vertex -43.0867 -81.7126 0
      vertex -29.7125 -112.189 0
      vertex -31.0957 -113.349 0
    endloop
  endfacet
  facet normal 0 0 -1
    outer loop
      vertex -36.079 -119.957 0
      vertex -33.1161 -118.261 0
      vertex -33.1954 -118.765 0
    endloop
  endfacet
  facet normal 0 0 -1
    outer loop
      vertex -36.079 -119.957 0
      vertex -33.1954 -118.765 0
      vertex -33.3994 -119.232 0
    endloop
  endfacet
  facet normal 0 0 -1
    outer loop
      vertex -36.079 -119.957 0
      vertex -33.3994 -119.232 0
      vertex -33.7151 -119.633 0
    endloop
  endfacet
  facet normal 0 0 -1
    outer loop
      vertex -36.079 -119.957 0
      vertex -33.7151 -119.633 0
      vertex -34.1217 -119.94 0
    endloop
  endfacet
  facet normal 0 0 -1
    outer loop
      vertex -36.079 -119.957 0
      vertex -34.1217 -119.94 0
      vertex -34.593 -120.135 0
    endloop
  endfacet
  facet normal -0 0 -1
    outer loop
      vertex -33.1161 -118.261 0
      vertex -36.079 -119.957 0
      vertex -32.8482 -116.476 0
    endloop
  endfacet
  facet normal 0 0 -1
    outer loop
      vertex -36.079 -119.957 0
      vertex -34.593 -120.135 0
      vertex -35.0982 -120.204 0
    endloop
  endfacet
  facet normal 0 0 -1
    outer loop
      vertex -36.079 -119.957 0
      vertex -35.0982 -120.204 0
      vertex -35.6045 -120.144 0
    endloop
  endfacet
  facet normal -0 0 -1
    outer loop
      vertex -32.8482 -116.476 0
      vertex -36.079 -119.957 0
      vertex -32.1615 -114.806 0
    endloop
  endfacet
  facet normal 0 0 -1
    outer loop
      vertex -46.2921 -81.0107 0
      vertex -32.1615 -114.806 0
      vertex -36.079 -119.957 0
    endloop
  endfacet
  facet normal 0 0 -1
    outer loop
      vertex -13.8 -100.7 0
      vertex -43.0867 -81.7126 0
      vertex -6.3 -88.1991 0
    endloop
  endfacet
  facet normal -0 -0 -1
    outer loop
      vertex -43.0867 -81.7126 0
      vertex -32.1615 -114.806 0
      vertex -46.2921 -81.0107 0
    endloop
  endfacet
  facet normal 0 0 -1
    outer loop
      vertex -32.1615 -114.806 0
      vertex -43.0867 -81.7126 0
      vertex -31.0957 -113.349 0
    endloop
  endfacet
  facet normal 0 0 -1
    outer loop
      vertex -36.079 -119.957 0
      vertex -49.4292 -80.0485 0
      vertex -46.2921 -81.0107 0
    endloop
  endfacet
  facet normal 0 0 -1
    outer loop
      vertex -36.079 -119.957 0
      vertex -52.4768 -78.8324 0
      vertex -49.4292 -80.0485 0
    endloop
  endfacet
  facet normal 0 0 -1
    outer loop
      vertex -36.079 -119.957 0
      vertex -55.4145 -77.3706 0
      vertex -52.4768 -78.8324 0
    endloop
  endfacet
  facet normal 0 0 -1
    outer loop
      vertex -122.664 -72.3452 0
      vertex -55.4145 -77.3706 0
      vertex -36.079 -119.957 0
    endloop
  endfacet
  facet normal 0 0 -1
    outer loop
      vertex -55.4145 -77.3706 0
      vertex -122.664 -72.3452 0
      vertex -89.3962 -58.6845 0
    endloop
  endfacet
  facet normal 0 -0 -1
    outer loop
      vertex -120.118 -68.1483 0
      vertex -89.3962 -58.6845 0
      vertex -122.664 -72.3452 0
    endloop
  endfacet
  facet normal 0 -0 -1
    outer loop
      vertex -119.342 -66.5375 0
      vertex -89.3962 -58.6845 0
      vertex -120.118 -68.1483 0
    endloop
  endfacet
  facet normal -0 0 -1
    outer loop
      vertex -103.742 -45.3069 0
      vertex -121.577 -58.4013 0
      vertex -105.721 -41.8747 0
    endloop
  endfacet
  facet normal 0 0 -1
    outer loop
      vertex -121.577 -58.4013 0
      vertex -103.742 -45.3069 0
      vertex -120.363 -59.7144 0
    endloop
  endfacet
  facet normal -0 0 -1
    outer loop
      vertex -101.433 -48.5265 0
      vertex -120.363 -59.7144 0
      vertex -103.742 -45.3069 0
    endloop
  endfacet
  facet normal 0 0 -1
    outer loop
      vertex -120.363 -59.7144 0
      vertex -101.433 -48.5265 0
      vertex -119.495 -61.2774 0
    endloop
  endfacet
  facet normal -0 0 -1
    outer loop
      vertex -98.8174 -51.5018 0
      vertex -119.495 -61.2774 0
      vertex -101.433 -48.5265 0
    endloop
  endfacet
  facet normal 0 0 -1
    outer loop
      vertex -119.495 -61.2774 0
      vertex -98.8174 -51.5018 0
      vertex -119.022 -63.0015 0
    endloop
  endfacet
  facet normal -0 0 -1
    outer loop
      vertex -95.9197 -54.2038 0
      vertex -119.022 -63.0015 0
      vertex -98.8174 -51.5018 0
    endloop
  endfacet
  facet normal -0 0 -1
    outer loop
      vertex -89.3962 -58.6845 0
      vertex -119.342 -66.5375 0
      vertex -92.7691 -56.6059 0
    endloop
  endfacet
  facet normal 0 0 -1
    outer loop
      vertex -119.022 -63.0015 0
      vertex -95.9197 -54.2038 0
      vertex -118.97 -64.7887 0
    endloop
  endfacet
  facet normal -0 0 -1
    outer loop
      vertex -92.7691 -56.6059 0
      vertex -118.97 -64.7887 0
      vertex -95.9197 -54.2038 0
    endloop
  endfacet
  facet normal 0 -0 -1
    outer loop
      vertex -118.97 -64.7887 0
      vertex -92.7691 -56.6059 0
      vertex -119.342 -66.5375 0
    endloop
  endfacet
  facet normal 0 0 -1
    outer loop
      vertex -120.118 -68.1483 0
      vertex -122.664 -72.3452 0
      vertex -121.253 -69.5298 0
    endloop
  endfacet
  facet normal 0 0 -1
    outer loop
      vertex -122.664 -72.3452 0
      vertex -122.683 -70.6033 0
      vertex -121.253 -69.5298 0
    endloop
  endfacet
  facet normal 0 0 -1
    outer loop
      vertex -122.855 -72.2089 0
      vertex -122.683 -70.6033 0
      vertex -122.664 -72.3452 0
    endloop
  endfacet
  facet normal 0 0 -1
    outer loop
      vertex -122.855 -72.2089 0
      vertex -122.871 -70.7437 0
      vertex -122.683 -70.6033 0
    endloop
  endfacet
  facet normal 0 0 -1
    outer loop
      vertex -123.008 -72.032 0
      vertex -122.871 -70.7437 0
      vertex -122.855 -72.2089 0
    endloop
  endfacet
  facet normal 0 0 -1
    outer loop
      vertex -123.008 -72.032 0
      vertex -123.02 -70.9239 0
      vertex -122.871 -70.7437 0
    endloop
  endfacet
  facet normal 0 0 -1
    outer loop
      vertex -123.117 -71.8242 0
      vertex -123.02 -70.9239 0
      vertex -123.008 -72.032 0
    endloop
  endfacet
  facet normal 0 0 -1
    outer loop
      vertex -123.117 -71.8242 0
      vertex -123.124 -71.134 0
      vertex -123.02 -70.9239 0
    endloop
  endfacet
  facet normal 0 0 -1
    outer loop
      vertex -123.174 -71.5969 0
      vertex -123.124 -71.134 0
      vertex -123.117 -71.8242 0
    endloop
  endfacet
  facet normal 0 0 -1
    outer loop
      vertex -123.124 -71.134 0
      vertex -123.174 -71.5969 0
      vertex -123.176 -71.3625 0
    endloop
  endfacet
  facet normal 0 0 -1
    outer loop
      vertex -126.5 -3.5 0
      vertex -124 1.5 0
      vertex -124 -3.5 0
    endloop
  endfacet
  facet normal -0 0 -1
    outer loop
      vertex -109.503 -30.6475 0
      vertex -128.298 -56.8459 0
      vertex -131.5 -6 0
    endloop
  endfacet
  facet normal 0 0 -1
    outer loop
      vertex -133.082 -57.9443 0
      vertex -128.298 -56.8459 0
      vertex -129.965 -57.4924 0
    endloop
  endfacet
  facet normal 0 0 -1
    outer loop
      vertex -133.082 -57.9443 0
      vertex -129.965 -57.4924 0
      vertex -131.432 -58.5152 0
    endloop
  endfacet
  facet normal 0 0 -1
    outer loop
      vertex -126.5 -6 0
      vertex -131.5 -6 0
      vertex -126.5 -3.5 0
    endloop
  endfacet
  facet normal 0 0 -1
    outer loop
      vertex -131.5 -3.5 0
      vertex -126.5 -3.5 0
      vertex -131.5 -6 0
    endloop
  endfacet
  facet normal 0 0 -1
    outer loop
      vertex -126.5 -3.5 0
      vertex -131.5 -3.5 0
      vertex -124 1.5 0
    endloop
  endfacet
  facet normal 0 0 -1
    outer loop
      vertex -134 1.5 0
      vertex -131.5 -3.5 0
      vertex -134 -3.5 0
    endloop
  endfacet
  facet normal 0 0 -1
    outer loop
      vertex -131.5 -3.5 0
      vertex -134 1.5 0
      vertex -124 1.5 0
    endloop
  endfacet
  facet normal 0 0 -1
    outer loop
      vertex -133.082 -57.9443 0
      vertex -131.432 -58.5152 0
      vertex -131.625 -58.6501 0
    endloop
  endfacet
  facet normal 0 0 -1
    outer loop
      vertex -133.082 -57.9443 0
      vertex -131.625 -58.6501 0
      vertex -131.844 -58.7362 0
    endloop
  endfacet
  facet normal 0 0 -1
    outer loop
      vertex -133.082 -57.9443 0
      vertex -131.844 -58.7362 0
      vertex -132.077 -58.7688 0
    endloop
  endfacet
  facet normal 0 0 -1
    outer loop
      vertex -133.082 -57.9443 0
      vertex -132.077 -58.7688 0
      vertex -132.311 -58.7459 0
    endloop
  endfacet
  facet normal 0 0 -1
    outer loop
      vertex -133.082 -57.9443 0
      vertex -132.311 -58.7459 0
      vertex -132.533 -58.669 0
    endloop
  endfacet
  facet normal 0 0 -1
    outer loop
      vertex -133.082 -57.9443 0
      vertex -132.533 -58.669 0
      vertex -132.732 -58.5422 0
    endloop
  endfacet
  facet normal 0 0 -1
    outer loop
      vertex -133.082 -57.9443 0
      vertex -132.732 -58.5422 0
      vertex -132.895 -58.3726 0
    endloop
  endfacet
  facet normal 0 0 -1
    outer loop
      vertex -133.082 -57.9443 0
      vertex -132.895 -58.3726 0
      vertex -133.014 -58.1696 0
    endloop
  endfacet
  facet normal -0 0 -1
    outer loop
      vertex -128.298 -56.8459 0
      vertex -133.082 -57.9443 0
      vertex -131.5 -6 0
    endloop
  endfacet
  facet normal -0 0 -1
    outer loop
      vertex -131.5 -6 0
      vertex -133.082 -57.9443 0
      vertex -142.333 -6 0
    endloop
  endfacet
  facet normal -0.598827 0.800878 -0.000977292
    outer loop
      vertex -122.691 -70.6084 1.14526
      vertex -122.683 -70.6033 0
      vertex -122.871 -70.7437 0
    endloop
  endfacet
  facet normal -0.61735 0.78668 0.00359741
    outer loop
      vertex -122.691 -70.6084 1.14526
      vertex -122.871 -70.7437 0
      vertex -122.897 -70.7695 1.14526
    endloop
  endfacet
  facet normal -0.768743 0.63955 -0.00319067
    outer loop
      vertex -122.897 -70.7695 1.14526
      vertex -122.871 -70.7437 0
      vertex -123.02 -70.9239 0
    endloop
  endfacet
  facet normal -0.799946 0.600047 0.00550236
    outer loop
      vertex -122.897 -70.7695 1.14526
      vertex -123.02 -70.9239 0
      vertex -123.053 -70.9784 1.14526
    endloop
  endfacet
  facet normal -0.99994 -0.0109046 0.00122699
    outer loop
      vertex -123.174 -71.5969 18
      vertex -123.176 -71.3625 18
      vertex -123.182 -71.4798 12.3818
    endloop
  endfacet
  facet normal -0.992808 0.119706 -0.00150607
    outer loop
      vertex -123.176 -71.3625 18
      vertex -123.151 -71.2206 12.3818
      vertex -123.182 -71.4798 12.3818
    endloop
  endfacet
  facet normal -0.975016 0.222132 0.00116247
    outer loop
      vertex -123.124 -71.134 18
      vertex -123.151 -71.2206 12.3818
      vertex -123.176 -71.3625 18
    endloop
  endfacet
  facet normal -0.927989 0.372604 -0.00137817
    outer loop
      vertex -123.124 -71.134 18
      vertex -123.053 -70.9784 12.3818
      vertex -123.151 -71.2206 12.3818
    endloop
  endfacet
  facet normal -0.617354 0.786685 0
    outer loop
      vertex -122.691 -70.6084 1.14526
      vertex -122.897 -70.7695 12.3818
      vertex -122.691 -70.6084 12.3818
    endloop
  endfacet
  facet normal -0.617354 0.786685 0
    outer loop
      vertex -122.897 -70.7695 12.3818
      vertex -122.691 -70.6084 1.14526
      vertex -122.897 -70.7695 1.14526
    endloop
  endfacet
  facet normal -0.799958 0.600056 0
    outer loop
      vertex -123.053 -70.9784 1.14526
      vertex -122.897 -70.7695 12.3818
      vertex -122.897 -70.7695 1.14526
    endloop
  endfacet
  facet normal -0.799958 0.600056 0
    outer loop
      vertex -122.897 -70.7695 12.3818
      vertex -123.053 -70.9784 1.14526
      vertex -123.053 -70.9784 12.3818
    endloop
  endfacet
  facet normal -0.896516 0.442985 -0.004751
    outer loop
      vertex -123.053 -70.9784 1.14526
      vertex -123.02 -70.9239 0
      vertex -123.124 -71.134 0
    endloop
  endfacet
  facet normal -0.914566 0.404433 0.0016048
    outer loop
      vertex -123.053 -70.9784 1.14526
      vertex -123.124 -71.134 0
      vertex -123.151 -71.2206 6.76351
    endloop
  endfacet
  facet normal -0.956454 0.291882 0
    outer loop
      vertex -123.151 -71.2206 6.76351
      vertex -123.124 -71.134 0
      vertex -123.151 -71.2206 1.14526
    endloop
  endfacet
  facet normal -0.986763 0.162159 0.00199206
    outer loop
      vertex -123.151 -71.2206 1.14526
      vertex -123.176 -71.3625 0
      vertex -123.182 -71.4798 6.76351
    endloop
  endfacet
  facet normal -0.999922 -0.0109045 -0.00601907
    outer loop
      vertex -123.176 -71.3625 0
      vertex -123.174 -71.5969 0
      vertex -123.182 -71.4798 1.14526
    endloop
  endfacet
  facet normal -0.979972 -0.199137 0
    outer loop
      vertex -123.145 -71.7382 1.14526
      vertex -123.145 -71.7382 6.76351
      vertex -123.174 -71.5969 0
    endloop
  endfacet
  facet normal -0.939462 -0.342645 0.00250282
    outer loop
      vertex -123.117 -71.8242 0
      vertex -123.043 -71.9783 6.76351
      vertex -123.145 -71.7382 1.14526
    endloop
  endfacet
  facet normal -0.886657 -0.462404 -0.00475163
    outer loop
      vertex -123.008 -72.032 0
      vertex -123.043 -71.9783 1.14526
      vertex -123.117 -71.8242 0
    endloop
  endfacet
  facet normal -0.75465 -0.65612 -0.00317872
    outer loop
      vertex -122.855 -72.2089 0
      vertex -122.881 -72.1837 1.14526
      vertex -123.008 -72.032 0
    endloop
  endfacet
  facet normal -0.581229 -0.81374 -0.000969459
    outer loop
      vertex -122.664 -72.3452 0
      vertex -122.673 -72.3403 1.14526
      vertex -122.855 -72.2089 0
    endloop
  endfacet
  facet normal -0.581229 -0.81374 0.000197621
    outer loop
      vertex -122.673 -72.3403 12.3818
      vertex -122.664 -72.3452 18
      vertex -122.855 -72.2089 18
    endloop
  endfacet
  facet normal -0.754654 -0.656123 0.000647976
    outer loop
      vertex -122.881 -72.1837 12.3818
      vertex -122.855 -72.2089 18
      vertex -123.008 -72.032 18
    endloop
  endfacet
  facet normal -0.886666 -0.462409 0.000968615
    outer loop
      vertex -123.043 -71.9783 12.3818
      vertex -123.008 -72.032 18
      vertex -123.117 -71.8242 18
    endloop
  endfacet
  facet normal -0.969937 -0.243355 0.00116354
    outer loop
      vertex -123.145 -71.7382 12.3818
      vertex -123.117 -71.8242 18
      vertex -123.174 -71.5969 18
    endloop
  endfacet
  facet normal -0.989965 -0.141307 -0.00150572
    outer loop
      vertex -123.145 -71.7382 12.3818
      vertex -123.174 -71.5969 18
      vertex -123.182 -71.4798 12.3818
    endloop
  endfacet
  facet normal -0.992809 0.119706 0
    outer loop
      vertex -123.182 -71.4798 6.76351
      vertex -123.151 -71.2206 6.76351
      vertex -123.151 -71.2206 1.14526
    endloop
  endfacet
  facet normal -0.992809 0.119706 0
    outer loop
      vertex -123.151 -71.2206 6.76351
      vertex -123.182 -71.4798 6.76351
      vertex -123.151 -71.2206 12.3818
    endloop
  endfacet
  facet normal -0.992809 0.119706 0
    outer loop
      vertex -123.151 -71.2206 12.3818
      vertex -123.182 -71.4798 6.76351
      vertex -123.182 -71.4798 12.3818
    endloop
  endfacet
  facet normal -0.975001 0.222128 -0.00570259
    outer loop
      vertex -123.151 -71.2206 1.14526
      vertex -123.124 -71.134 0
      vertex -123.176 -71.3625 0
    endloop
  endfacet
  facet normal -0.998855 0.0478338 0
    outer loop
      vertex -123.182 -71.4798 6.76351
      vertex -123.176 -71.3625 0
      vertex -123.182 -71.4798 1.14526
    endloop
  endfacet
  facet normal -0.995755 -0.0920188 0.00230518
    outer loop
      vertex -123.174 -71.5969 0
      vertex -123.145 -71.7382 6.76351
      vertex -123.182 -71.4798 1.14526
    endloop
  endfacet
  facet normal -0.989966 -0.141307 0
    outer loop
      vertex -123.145 -71.7382 6.76351
      vertex -123.182 -71.4798 6.76351
      vertex -123.182 -71.4798 1.14526
    endloop
  endfacet
  facet normal -0.989966 -0.141307 0
    outer loop
      vertex -123.182 -71.4798 6.76351
      vertex -123.145 -71.7382 6.76351
      vertex -123.182 -71.4798 12.3818
    endloop
  endfacet
  facet normal -0.989966 -0.141307 0
    outer loop
      vertex -123.182 -71.4798 12.3818
      vertex -123.145 -71.7382 6.76351
      vertex -123.145 -71.7382 12.3818
    endloop
  endfacet
  facet normal -0.919645 -0.392752 0
    outer loop
      vertex -123.043 -71.9783 6.76351
      vertex -123.145 -71.7382 6.76351
      vertex -123.145 -71.7382 1.14526
    endloop
  endfacet
  facet normal -0.919645 -0.392752 0
    outer loop
      vertex -123.145 -71.7382 6.76351
      vertex -123.043 -71.9783 6.76351
      vertex -123.145 -71.7382 12.3818
    endloop
  endfacet
  facet normal -0.919645 -0.392752 0
    outer loop
      vertex -123.145 -71.7382 12.3818
      vertex -123.043 -71.9783 6.76351
      vertex -123.043 -71.9783 12.3818
    endloop
  endfacet
  facet normal -0.969921 -0.243351 -0.0057078
    outer loop
      vertex -123.117 -71.8242 0
      vertex -123.145 -71.7382 1.14526
      vertex -123.174 -71.5969 0
    endloop
  endfacet
  facet normal -0.900933 -0.433959 0
    outer loop
      vertex -123.043 -71.9783 1.14526
      vertex -123.043 -71.9783 6.76351
      vertex -123.117 -71.8242 0
    endloop
  endfacet
  facet normal -0.486685 -0.873577 0
    outer loop
      vertex -122.673 -72.3403 1.14526
      vertex -122.664 -72.3452 18
      vertex -122.673 -72.3403 12.3818
    endloop
  endfacet
  facet normal -0.486685 -0.873577 -0
    outer loop
      vertex -122.664 -72.3452 18
      vertex -122.673 -72.3403 1.14526
      vertex -122.664 -72.3452 0
    endloop
  endfacet
  facet normal -0.786662 -0.617359 0.00550259
    outer loop
      vertex -123.008 -72.032 0
      vertex -122.881 -72.1837 1.14526
      vertex -123.043 -71.9783 1.14526
    endloop
  endfacet
  facet normal -0.600071 -0.799939 0.00360896
    outer loop
      vertex -122.855 -72.2089 0
      vertex -122.673 -72.3403 1.14526
      vertex -122.881 -72.1837 1.14526
    endloop
  endfacet
  facet normal -0.786674 -0.617368 0
    outer loop
      vertex -122.881 -72.1837 1.14526
      vertex -123.043 -71.9783 6.76351
      vertex -123.043 -71.9783 1.14526
    endloop
  endfacet
  facet normal -0.786674 -0.617368 -0
    outer loop
      vertex -122.881 -72.1837 12.3818
      vertex -123.043 -71.9783 6.76351
      vertex -122.881 -72.1837 1.14526
    endloop
  endfacet
  facet normal -0.786674 -0.617368 0
    outer loop
      vertex -123.043 -71.9783 6.76351
      vertex -122.881 -72.1837 12.3818
      vertex -123.043 -71.9783 12.3818
    endloop
  endfacet
  facet normal -0.600075 -0.799944 -0.000735681
    outer loop
      vertex -122.673 -72.3403 12.3818
      vertex -122.855 -72.2089 18
      vertex -122.881 -72.1837 12.3818
    endloop
  endfacet
  facet normal -0.786674 -0.617368 -0.0011217
    outer loop
      vertex -122.881 -72.1837 12.3818
      vertex -123.008 -72.032 18
      vertex -123.043 -71.9783 12.3818
    endloop
  endfacet
  facet normal -0.919644 -0.392751 -0.00137719
    outer loop
      vertex -123.043 -71.9783 12.3818
      vertex -123.117 -71.8242 18
      vertex -123.145 -71.7382 12.3818
    endloop
  endfacet
  facet normal -0.896526 0.44299 0.000968488
    outer loop
      vertex -123.02 -70.9239 18
      vertex -123.053 -70.9784 12.3818
      vertex -123.124 -71.134 18
    endloop
  endfacet
  facet normal -0.799957 0.600056 -0.00112166
    outer loop
      vertex -123.02 -70.9239 18
      vertex -122.897 -70.7695 12.3818
      vertex -123.053 -70.9784 12.3818
    endloop
  endfacet
  facet normal -0.504873 0.863194 0
    outer loop
      vertex -122.683 -70.6033 18
      vertex -122.691 -70.6084 1.14526
      vertex -122.691 -70.6084 12.3818
    endloop
  endfacet
  facet normal -0.504873 0.863194 0
    outer loop
      vertex -122.691 -70.6084 1.14526
      vertex -122.683 -70.6033 18
      vertex -122.683 -70.6033 0
    endloop
  endfacet
  facet normal -0.768746 0.639553 0.000650413
    outer loop
      vertex -122.871 -70.7437 18
      vertex -122.897 -70.7695 12.3818
      vertex -123.02 -70.9239 18
    endloop
  endfacet
  facet normal -0.617354 0.786685 -0.000733327
    outer loop
      vertex -122.871 -70.7437 18
      vertex -122.691 -70.6084 12.3818
      vertex -122.897 -70.7695 12.3818
    endloop
  endfacet
  facet normal -0.598827 0.800878 0.000199218
    outer loop
      vertex -122.683 -70.6033 18
      vertex -122.691 -70.6084 12.3818
      vertex -122.871 -70.7437 18
    endloop
  endfacet
  facet normal -0.92799 0.372605 0
    outer loop
      vertex -123.151 -71.2206 6.76351
      vertex -123.053 -70.9784 12.3818
      vertex -123.053 -70.9784 1.14526
    endloop
  endfacet
  facet normal -0.92799 0.372605 0
    outer loop
      vertex -123.053 -70.9784 12.3818
      vertex -123.151 -71.2206 6.76351
      vertex -123.151 -71.2206 12.3818
    endloop
  endfacet
  facet normal -0.600075 -0.799944 0
    outer loop
      vertex -122.881 -72.1837 1.14526
      vertex -122.673 -72.3403 12.3818
      vertex -122.881 -72.1837 12.3818
    endloop
  endfacet
  facet normal -0.600075 -0.799944 -0
    outer loop
      vertex -122.673 -72.3403 12.3818
      vertex -122.881 -72.1837 1.14526
      vertex -122.673 -72.3403 1.14526
    endloop
  endfacet
  facet normal -0.60043 0.799677 0
    outer loop
      vertex -121.253 -69.5298 0
      vertex -122.683 -70.6033 18
      vertex -121.253 -69.5298 18
    endloop
  endfacet
  facet normal -0.60043 0.799677 0
    outer loop
      vertex -122.683 -70.6033 18
      vertex -121.253 -69.5298 0
      vertex -122.683 -70.6033 0
    endloop
  endfacet
  facet normal -0.772644 0.634839 0
    outer loop
      vertex -121.253 -69.5298 0
      vertex -120.118 -68.1483 18
      vertex -120.118 -68.1483 0
    endloop
  endfacet
  facet normal -0.772644 0.634839 0
    outer loop
      vertex -120.118 -68.1483 18
      vertex -121.253 -69.5298 0
      vertex -121.253 -69.5298 18
    endloop
  endfacet
  facet normal -0.900954 0.433914 0
    outer loop
      vertex -120.118 -68.1483 0
      vertex -119.342 -66.5375 18
      vertex -119.342 -66.5375 0
    endloop
  endfacet
  facet normal -0.900954 0.433914 0
    outer loop
      vertex -119.342 -66.5375 18
      vertex -120.118 -68.1483 0
      vertex -120.118 -68.1483 18
    endloop
  endfacet
  facet normal 0.57202 -0.820239 0
    outer loop
      vertex -131.432 -58.5152 0
      vertex -129.965 -57.4924 18
      vertex -131.432 -58.5152 18
    endloop
  endfacet
  facet normal 0.57202 -0.820239 0
    outer loop
      vertex -129.965 -57.4924 18
      vertex -131.432 -58.5152 0
      vertex -129.965 -57.4924 0
    endloop
  endfacet
  facet normal -0.978059 0.208328 0
    outer loop
      vertex -119.342 -66.5375 0
      vertex -118.97 -64.7887 18
      vertex -118.97 -64.7887 0
    endloop
  endfacet
  facet normal -0.978059 0.208328 0
    outer loop
      vertex -118.97 -64.7887 18
      vertex -119.342 -66.5375 0
      vertex -119.342 -66.5375 18
    endloop
  endfacet
  facet normal -0.999577 -0.0290886 0
    outer loop
      vertex -118.97 -64.7887 0
      vertex -119.022 -63.0015 18
      vertex -119.022 -63.0015 0
    endloop
  endfacet
  facet normal -0.999577 -0.0290886 0
    outer loop
      vertex -119.022 -63.0015 18
      vertex -118.97 -64.7887 0
      vertex -118.97 -64.7887 18
    endloop
  endfacet
  facet normal -0.964287 -0.264858 0
    outer loop
      vertex -119.022 -63.0015 0
      vertex -119.495 -61.2774 18
      vertex -119.495 -61.2774 0
    endloop
  endfacet
  facet normal -0.964287 -0.264858 0
    outer loop
      vertex -119.495 -61.2774 18
      vertex -119.022 -63.0015 0
      vertex -119.022 -63.0015 18
    endloop
  endfacet
  facet normal -0.874192 -0.48558 0
    outer loop
      vertex -119.495 -61.2774 0
      vertex -120.363 -59.7144 18
      vertex -120.363 -59.7144 0
    endloop
  endfacet
  facet normal -0.874192 -0.48558 0
    outer loop
      vertex -120.363 -59.7144 18
      vertex -119.495 -61.2774 0
      vertex -119.495 -61.2774 18
    endloop
  endfacet
  facet normal -0.734423 -0.678692 0
    outer loop
      vertex -120.363 -59.7144 0
      vertex -121.577 -58.4013 18
      vertex -121.577 -58.4013 0
    endloop
  endfacet
  facet normal -0.734423 -0.678692 0
    outer loop
      vertex -121.577 -58.4013 18
      vertex -120.363 -59.7144 0
      vertex -120.363 -59.7144 18
    endloop
  endfacet
  facet normal -0.552906 -0.833244 0
    outer loop
      vertex -123.067 -57.4127 0
      vertex -121.577 -58.4013 18
      vertex -123.067 -57.4127 18
    endloop
  endfacet
  facet normal -0.552906 -0.833244 -0
    outer loop
      vertex -121.577 -58.4013 18
      vertex -123.067 -57.4127 0
      vertex -121.577 -58.4013 0
    endloop
  endfacet
  facet normal -0.33997 -0.940436 0
    outer loop
      vertex -124.748 -56.8048 0
      vertex -123.067 -57.4127 18
      vertex -124.748 -56.8048 18
    endloop
  endfacet
  facet normal -0.33997 -0.940436 -0
    outer loop
      vertex -123.067 -57.4127 18
      vertex -124.748 -56.8048 0
      vertex -123.067 -57.4127 0
    endloop
  endfacet
  facet normal -0.107712 -0.994182 0
    outer loop
      vertex -126.526 -56.6122 0
      vertex -124.748 -56.8048 18
      vertex -126.526 -56.6122 18
    endloop
  endfacet
  facet normal -0.107712 -0.994182 -0
    outer loop
      vertex -124.748 -56.8048 18
      vertex -126.526 -56.6122 0
      vertex -124.748 -56.8048 0
    endloop
  endfacet
  facet normal 0.130667 -0.991426 0
    outer loop
      vertex -128.298 -56.8459 0
      vertex -126.526 -56.6122 18
      vertex -128.298 -56.8459 18
    endloop
  endfacet
  facet normal 0.130667 -0.991426 0
    outer loop
      vertex -126.526 -56.6122 18
      vertex -128.298 -56.8459 0
      vertex -126.526 -56.6122 0
    endloop
  endfacet
  facet normal 0.361623 -0.932324 0
    outer loop
      vertex -129.965 -57.4924 0
      vertex -128.298 -56.8459 18
      vertex -129.965 -57.4924 18
    endloop
  endfacet
  facet normal 0.361623 -0.932324 0
    outer loop
      vertex -128.298 -56.8459 18
      vertex -129.965 -57.4924 0
      vertex -128.298 -56.8459 0
    endloop
  endfacet
  facet normal 0.573282 -0.819358 0.00028242
    outer loop
      vertex -131.443 -58.5246 12.403
      vertex -131.432 -58.5152 18
      vertex -131.625 -58.6501 18
    endloop
  endfacet
  facet normal 0.550765 -0.83466 -0.000793124
    outer loop
      vertex -131.443 -58.5246 12.403
      vertex -131.625 -58.6501 18
      vertex -131.661 -58.6684 12.403
    endloop
  endfacet
  facet normal 0.365915 -0.930648 0.000703036
    outer loop
      vertex -131.661 -58.6684 12.403
      vertex -131.625 -58.6501 18
      vertex -131.844 -58.7362 18
    endloop
  endfacet
  facet normal 0.315912 -0.948788 -0.0011537
    outer loop
      vertex -131.661 -58.6684 12.403
      vertex -131.844 -58.7362 18
      vertex -131.908 -58.7509 12.403
    endloop
  endfacet
  facet normal -0.14267 -0.98977 0
    outer loop
      vertex -132.169 -58.7665 1.20909
      vertex -132.169 -58.7665 6.80606
      vertex -132.311 -58.7459 0
    endloop
  endfacet
  facet normal -0.096992 -0.99527 -0.00546813
    outer loop
      vertex -132.077 -58.7688 0
      vertex -132.169 -58.7665 1.20909
      vertex -132.311 -58.7459 0
    endloop
  endfacet
  facet normal 0.00703422 -0.999972 0.00245322
    outer loop
      vertex -132.077 -58.7688 0
      vertex -131.908 -58.7509 6.80606
      vertex -132.169 -58.7665 1.20909
    endloop
  endfacet
  facet normal 0.105472 -0.994422 0
    outer loop
      vertex -131.908 -58.7509 1.20909
      vertex -131.908 -58.7509 6.80606
      vertex -132.077 -58.7688 0
    endloop
  endfacet
  facet normal 0.138281 -0.990382 -0.00463501
    outer loop
      vertex -131.844 -58.7362 0
      vertex -131.908 -58.7509 1.20909
      vertex -132.077 -58.7688 0
    endloop
  endfacet
  facet normal 0.315908 -0.948775 0.00534047
    outer loop
      vertex -131.844 -58.7362 0
      vertex -131.661 -58.6684 1.20909
      vertex -131.908 -58.7509 1.20909
    endloop
  endfacet
  facet normal 0.315912 -0.948788 0
    outer loop
      vertex -131.908 -58.7509 6.80606
      vertex -131.661 -58.6684 12.403
      vertex -131.908 -58.7509 12.403
    endloop
  endfacet
  facet normal 0.315912 -0.948788 0
    outer loop
      vertex -131.661 -58.6684 1.20909
      vertex -131.908 -58.7509 6.80606
      vertex -131.908 -58.7509 1.20909
    endloop
  endfacet
  facet normal 0.315912 -0.948788 0
    outer loop
      vertex -131.908 -58.7509 6.80606
      vertex -131.661 -58.6684 1.20909
      vertex -131.661 -58.6684 12.403
    endloop
  endfacet
  facet normal 0.138282 -0.990392 0.00100129
    outer loop
      vertex -131.908 -58.7509 12.403
      vertex -131.844 -58.7362 18
      vertex -132.077 -58.7688 18
    endloop
  endfacet
  facet normal 0.0596231 -0.99822 -0.00139333
    outer loop
      vertex -131.908 -58.7509 12.403
      vertex -132.077 -58.7688 18
      vertex -132.169 -58.7665 12.403
    endloop
  endfacet
  facet normal -0.382068 -0.924134 0
    outer loop
      vertex -132.425 -58.714 1.20909
      vertex -132.425 -58.714 6.80606
      vertex -132.533 -58.669 0
    endloop
  endfacet
  facet normal -0.326949 -0.945024 -0.00574399
    outer loop
      vertex -132.311 -58.7459 0
      vertex -132.425 -58.714 1.20909
      vertex -132.533 -58.669 0
    endloop
  endfacet
  facet normal -0.248212 -0.968703 0.00226973
    outer loop
      vertex -132.311 -58.7459 0
      vertex -132.169 -58.7665 6.80606
      vertex -132.425 -58.714 1.20909
    endloop
  endfacet
  facet normal -0.200779 -0.979637 0
    outer loop
      vertex -132.425 -58.714 6.80606
      vertex -132.169 -58.7665 12.403
      vertex -132.425 -58.714 12.403
    endloop
  endfacet
  facet normal -0.200779 -0.979637 0
    outer loop
      vertex -132.425 -58.714 6.80606
      vertex -132.169 -58.7665 6.80606
      vertex -132.169 -58.7665 12.403
    endloop
  endfacet
  facet normal -0.200779 -0.979637 0
    outer loop
      vertex -132.169 -58.7665 6.80606
      vertex -132.425 -58.714 6.80606
      vertex -132.425 -58.714 1.20909
    endloop
  endfacet
  facet normal -0.0969934 -0.995284 0.00118128
    outer loop
      vertex -132.169 -58.7665 12.403
      vertex -132.077 -58.7688 18
      vertex -132.311 -58.7459 18
    endloop
  endfacet
  facet normal -0.200779 -0.979635 -0.00151424
    outer loop
      vertex -132.169 -58.7665 12.403
      vertex -132.311 -58.7459 18
      vertex -132.425 -58.714 12.403
    endloop
  endfacet
  facet normal -0.663691 -0.748007 0
    outer loop
      vertex -132.853 -58.424 1.20909
      vertex -132.658 -58.5972 12.403
      vertex -132.853 -58.424 12.403
    endloop
  endfacet
  facet normal -0.663691 -0.748007 -0
    outer loop
      vertex -132.658 -58.5972 12.403
      vertex -132.853 -58.424 1.20909
      vertex -132.658 -58.5972 1.20909
    endloop
  endfacet
  facet normal -0.720711 -0.69322 -0.00463729
    outer loop
      vertex -132.732 -58.5422 0
      vertex -132.853 -58.424 1.20909
      vertex -132.895 -58.3726 0
    endloop
  endfacet
  facet normal -0.663677 -0.747992 0.0064517
    outer loop
      vertex -132.732 -58.5422 0
      vertex -132.658 -58.5972 1.20909
      vertex -132.853 -58.424 1.20909
    endloop
  endfacet
  facet normal -0.538716 -0.84247 -0.00546796
    outer loop
      vertex -132.533 -58.669 0
      vertex -132.658 -58.5972 1.20909
      vertex -132.732 -58.5422 0
    endloop
  endfacet
  facet normal -0.484941 -0.874544 0.00197465
    outer loop
      vertex -132.533 -58.669 0
      vertex -132.425 -58.714 6.80606
      vertex -132.658 -58.5972 1.20909
    endloop
  endfacet
  facet normal -0.447482 -0.894293 0
    outer loop
      vertex -132.658 -58.5972 12.403
      vertex -132.425 -58.714 6.80606
      vertex -132.425 -58.714 12.403
    endloop
  endfacet
  facet normal -0.447482 -0.894293 0
    outer loop
      vertex -132.425 -58.714 6.80606
      vertex -132.658 -58.5972 12.403
      vertex -132.658 -58.5972 1.20909
    endloop
  endfacet
  facet normal -0.326954 -0.945039 0.00124087
    outer loop
      vertex -132.425 -58.714 12.403
      vertex -132.311 -58.7459 18
      vertex -132.533 -58.669 18
    endloop
  endfacet
  facet normal -0.447482 -0.894292 -0.00151327
    outer loop
      vertex -132.425 -58.714 12.403
      vertex -132.533 -58.669 18
      vertex -132.658 -58.5972 12.403
    endloop
  endfacet
  facet normal -0.834658 -0.550769 0
    outer loop
      vertex -132.853 -58.424 1.20909
      vertex -132.997 -58.2061 12.403
      vertex -132.997 -58.2061 1.20909
    endloop
  endfacet
  facet normal -0.834658 -0.550769 0
    outer loop
      vertex -132.997 -58.2061 12.403
      vertex -132.853 -58.424 1.20909
      vertex -132.853 -58.424 12.403
    endloop
  endfacet
  facet normal -0.862764 -0.505596 -0.00325927
    outer loop
      vertex -132.895 -58.3726 0
      vertex -132.997 -58.2061 1.20909
      vertex -133.014 -58.1696 0
    endloop
  endfacet
  facet normal -0.834646 -0.550761 0.00533719
    outer loop
      vertex -132.895 -58.3726 0
      vertex -132.853 -58.424 1.20909
      vertex -132.997 -58.2061 1.20909
    endloop
  endfacet
  facet normal -0.538724 -0.842482 0.00118124
    outer loop
      vertex -132.658 -58.5972 12.403
      vertex -132.533 -58.669 18
      vertex -132.732 -58.5422 18
    endloop
  endfacet
  facet normal -0.66369 -0.748007 -0.00139376
    outer loop
      vertex -132.658 -58.5972 12.403
      vertex -132.732 -58.5422 18
      vertex -132.853 -58.424 12.403
    endloop
  endfacet
  facet normal -0.948783 -0.31593 0
    outer loop
      vertex -132.997 -58.2061 1.20909
      vertex -133.079 -57.9584 12.403
      vertex -133.079 -57.9584 1.20909
    endloop
  endfacet
  facet normal -0.948783 -0.31593 0
    outer loop
      vertex -133.079 -57.9584 12.403
      vertex -132.997 -58.2061 1.20909
      vertex -132.997 -58.2061 12.403
    endloop
  endfacet
  facet normal -0.957042 -0.289946 -0.00132047
    outer loop
      vertex -133.014 -58.1696 0
      vertex -133.079 -57.9584 1.20909
      vertex -133.082 -57.9443 0
    endloop
  endfacet
  facet normal -0.948776 -0.315928 0.00366594
    outer loop
      vertex -133.014 -58.1696 0
      vertex -132.997 -58.2061 1.20909
      vertex -133.079 -57.9584 1.20909
    endloop
  endfacet
  facet normal -0.720718 -0.693228 0.00100179
    outer loop
      vertex -132.853 -58.424 12.403
      vertex -132.732 -58.5422 18
      vertex -132.895 -58.3726 18
    endloop
  endfacet
  facet normal -0.834657 -0.550769 -0.00115299
    outer loop
      vertex -132.853 -58.424 12.403
      vertex -132.895 -58.3726 18
      vertex -132.997 -58.2061 12.403
    endloop
  endfacet
  facet normal -0.983423 -0.181325 0
    outer loop
      vertex -133.079 -57.9584 1.20909
      vertex -133.082 -57.9443 18
      vertex -133.082 -57.9443 0
    endloop
  endfacet
  facet normal -0.983423 -0.181325 0
    outer loop
      vertex -133.082 -57.9443 18
      vertex -133.079 -57.9584 1.20909
      vertex -133.079 -57.9584 12.403
    endloop
  endfacet
  facet normal -0.862769 -0.505598 0.000704092
    outer loop
      vertex -132.997 -58.2061 12.403
      vertex -132.895 -58.3726 18
      vertex -133.014 -58.1696 18
    endloop
  endfacet
  facet normal -0.948782 -0.31593 -0.000791944
    outer loop
      vertex -132.997 -58.2061 12.403
      vertex -133.014 -58.1696 18
      vertex -133.079 -57.9584 12.403
    endloop
  endfacet
  facet normal -0.957043 -0.289946 0.000285257
    outer loop
      vertex -133.079 -57.9584 12.403
      vertex -133.014 -58.1696 18
      vertex -133.082 -57.9443 18
    endloop
  endfacet
  facet normal 0.365913 -0.930643 -0.00325438
    outer loop
      vertex -131.625 -58.6501 0
      vertex -131.661 -58.6684 1.20909
      vertex -131.844 -58.7362 0
    endloop
  endfacet
  facet normal 0.550762 -0.834655 0.0036714
    outer loop
      vertex -131.625 -58.6501 0
      vertex -131.443 -58.5246 1.20909
      vertex -131.661 -58.6684 1.20909
    endloop
  endfacet
  facet normal 0.660315 -0.750989 0
    outer loop
      vertex -131.443 -58.5246 1.20909
      vertex -131.432 -58.5152 18
      vertex -131.443 -58.5246 12.403
    endloop
  endfacet
  facet normal 0.660315 -0.750989 0
    outer loop
      vertex -131.432 -58.5152 18
      vertex -131.443 -58.5246 1.20909
      vertex -131.432 -58.5152 0
    endloop
  endfacet
  facet normal 0.573281 -0.819358 -0.00130734
    outer loop
      vertex -131.432 -58.5152 0
      vertex -131.443 -58.5246 1.20909
      vertex -131.625 -58.6501 0
    endloop
  endfacet
  facet normal 0.550765 -0.83466 0
    outer loop
      vertex -131.661 -58.6684 1.20909
      vertex -131.443 -58.5246 12.403
      vertex -131.661 -58.6684 12.403
    endloop
  endfacet
  facet normal 0.550765 -0.83466 0
    outer loop
      vertex -131.443 -58.5246 12.403
      vertex -131.661 -58.6684 1.20909
      vertex -131.443 -58.5246 1.20909
    endloop
  endfacet
  facet normal 0.0596232 -0.998221 0
    outer loop
      vertex -132.169 -58.7665 6.80606
      vertex -131.908 -58.7509 12.403
      vertex -132.169 -58.7665 12.403
    endloop
  endfacet
  facet normal 0.0596232 -0.998221 0
    outer loop
      vertex -132.169 -58.7665 6.80606
      vertex -131.908 -58.7509 6.80606
      vertex -131.908 -58.7509 12.403
    endloop
  endfacet
  facet normal 0.0596232 -0.998221 0
    outer loop
      vertex -131.908 -58.7509 6.80606
      vertex -132.169 -58.7665 6.80606
      vertex -132.169 -58.7665 1.20909
    endloop
  endfacet
  facet normal -0.984509 -0.175333 0
    outer loop
      vertex -133.082 -57.9443 0
      vertex -142.333 -6 18
      vertex -142.333 -6 0
    endloop
  endfacet
  facet normal -0.984509 -0.175333 0
    outer loop
      vertex -142.333 -6 18
      vertex -133.082 -57.9443 0
      vertex -133.082 -57.9443 18
    endloop
  endfacet
  facet normal -0.481842 -0.876258 0
    outer loop
      vertex -122.664 -72.3452 0
      vertex -36.079 -119.957 18
      vertex -122.664 -72.3452 18
    endloop
  endfacet
  facet normal -0.481842 -0.876258 -0
    outer loop
      vertex -36.079 -119.957 18
      vertex -122.664 -72.3452 0
      vertex -36.079 -119.957 0
    endloop
  endfacet
endsolid OpenSCAD_Model
