solid OpenSCAD_Model
  facet normal 0 1 -0
    outer loop
      vertex -6.3 73.2 0
      vertex -8.2 73.2 18
      vertex -6.3 73.2 18
    endloop
  endfacet
  facet normal 0 1 0
    outer loop
      vertex -8.2 73.2 18
      vertex -6.3 73.2 0
      vertex -8.2 73.2 0
    endloop
  endfacet
  facet normal 0 -1 0
    outer loop
      vertex -8.2 78.8 0
      vertex -6.3 78.8 18
      vertex -8.2 78.8 18
    endloop
  endfacet
  facet normal 0 -1 -0
    outer loop
      vertex -6.3 78.8 18
      vertex -8.2 78.8 0
      vertex -6.3 78.8 0
    endloop
  endfacet
  facet normal 0 1 -0
    outer loop
      vertex -8.2 70.7 0
      vertex -13.8 70.7 18
      vertex -8.2 70.7 18
    endloop
  endfacet
  facet normal 0 1 0
    outer loop
      vertex -13.8 70.7 18
      vertex -8.2 70.7 0
      vertex -13.8 70.7 0
    endloop
  endfacet
  facet normal 0 -1 0
    outer loop
      vertex -13.8 81.3 0
      vertex -8.2 81.3 18
      vertex -13.8 81.3 18
    endloop
  endfacet
  facet normal 0 -1 -0
    outer loop
      vertex -8.2 81.3 18
      vertex -13.8 81.3 0
      vertex -8.2 81.3 0
    endloop
  endfacet
  facet normal -1 0 0
    outer loop
      vertex -8.2 70.7 0
      vertex -8.2 73.2 18
      vertex -8.2 73.2 0
    endloop
  endfacet
  facet normal -1 -0 0
    outer loop
      vertex -8.2 73.2 18
      vertex -8.2 70.7 0
      vertex -8.2 70.7 18
    endloop
  endfacet
  facet normal -1 0 0
    outer loop
      vertex -8.2 78.8 0
      vertex -8.2 81.3 18
      vertex -8.2 81.3 0
    endloop
  endfacet
  facet normal -1 -0 0
    outer loop
      vertex -8.2 81.3 18
      vertex -8.2 78.8 0
      vertex -8.2 78.8 18
    endloop
  endfacet
  facet normal 1 -0 0
    outer loop
      vertex -13.8 70.7 18
      vertex -13.8 81.3 0
      vertex -13.8 81.3 18
    endloop
  endfacet
  facet normal 1 0 0
    outer loop
      vertex -13.8 81.3 0
      vertex -13.8 70.7 18
      vertex -13.8 70.7 0
    endloop
  endfacet
  facet normal 1 -0 0
    outer loop
      vertex -6.3 78.8 18
      vertex -6.3 96.0197 0
      vertex -6.3 96.0197 18
    endloop
  endfacet
  facet normal 1 0 0
    outer loop
      vertex -6.3 96.0197 0
      vertex -6.3 78.8 18
      vertex -6.3 78.8 0
    endloop
  endfacet
  facet normal 1 -0 0
    outer loop
      vertex -6.3 67.5877 18
      vertex -6.3 73.2 0
      vertex -6.3 73.2 18
    endloop
  endfacet
  facet normal 1 0 0
    outer loop
      vertex -6.3 73.2 0
      vertex -6.3 67.5877 18
      vertex -6.3 67.5877 0
    endloop
  endfacet
  facet normal 1 -0 0
    outer loop
      vertex -131.8 6.3 18
      vertex -131.8 8.2 0
      vertex -131.8 8.2 18
    endloop
  endfacet
  facet normal 1 0 0
    outer loop
      vertex -131.8 8.2 0
      vertex -131.8 6.3 18
      vertex -131.8 6.3 0
    endloop
  endfacet
  facet normal -1 0 0
    outer loop
      vertex -126.2 6.3 0
      vertex -126.2 8.2 18
      vertex -126.2 8.2 0
    endloop
  endfacet
  facet normal -1 -0 0
    outer loop
      vertex -126.2 8.2 18
      vertex -126.2 6.3 0
      vertex -126.2 6.3 18
    endloop
  endfacet
  facet normal 1 -0 0
    outer loop
      vertex -134.3 8.2 18
      vertex -134.3 13.8 0
      vertex -134.3 13.8 18
    endloop
  endfacet
  facet normal 1 0 0
    outer loop
      vertex -134.3 13.8 0
      vertex -134.3 8.2 18
      vertex -134.3 8.2 0
    endloop
  endfacet
  facet normal -1 0 0
    outer loop
      vertex -123.7 8.2 0
      vertex -123.7 13.8 18
      vertex -123.7 13.8 0
    endloop
  endfacet
  facet normal -1 -0 0
    outer loop
      vertex -123.7 13.8 18
      vertex -123.7 8.2 0
      vertex -123.7 8.2 18
    endloop
  endfacet
  facet normal 0 -1 0
    outer loop
      vertex -134.3 13.8 0
      vertex -123.7 13.8 18
      vertex -134.3 13.8 18
    endloop
  endfacet
  facet normal 0 -1 -0
    outer loop
      vertex -123.7 13.8 18
      vertex -134.3 13.8 0
      vertex -123.7 13.8 0
    endloop
  endfacet
  facet normal 0 1 -0
    outer loop
      vertex -131.8 8.2 0
      vertex -134.3 8.2 18
      vertex -131.8 8.2 18
    endloop
  endfacet
  facet normal 0 1 0
    outer loop
      vertex -134.3 8.2 18
      vertex -131.8 8.2 0
      vertex -134.3 8.2 0
    endloop
  endfacet
  facet normal 0 1 -0
    outer loop
      vertex -123.7 8.2 0
      vertex -126.2 8.2 18
      vertex -123.7 8.2 18
    endloop
  endfacet
  facet normal 0 1 0
    outer loop
      vertex -126.2 8.2 18
      vertex -123.7 8.2 0
      vertex -126.2 8.2 0
    endloop
  endfacet
  facet normal 0 -1 0
    outer loop
      vertex -142.386 6.3 0
      vertex -131.8 6.3 18
      vertex -142.386 6.3 18
    endloop
  endfacet
  facet normal 0 -1 -0
    outer loop
      vertex -131.8 6.3 18
      vertex -142.386 6.3 0
      vertex -131.8 6.3 0
    endloop
  endfacet
  facet normal 0 -1 0
    outer loop
      vertex -126.2 6.3 0
      vertex -113.946 6.3 18
      vertex -126.2 6.3 18
    endloop
  endfacet
  facet normal 0 -1 -0
    outer loop
      vertex -113.946 6.3 18
      vertex -126.2 6.3 0
      vertex -113.946 6.3 0
    endloop
  endfacet
  facet normal 0.211386 -0.977403 0
    outer loop
      vertex -87.8563 67.5185 0
      vertex -83.722 68.4126 18
      vertex -87.8563 67.5185 18
    endloop
  endfacet
  facet normal 0.211386 -0.977403 0
    outer loop
      vertex -83.722 68.4126 18
      vertex -87.8563 67.5185 0
      vertex -83.722 68.4126 0
    endloop
  endfacet
  facet normal 0.999846 0.0175499 0
    outer loop
      vertex -117.246 26.1086 18
      vertex -117.321 30.3378 0
      vertex -117.321 30.3378 18
    endloop
  endfacet
  facet normal 0.999846 0.0175499 0
    outer loop
      vertex -117.321 30.3378 0
      vertex -117.246 26.1086 18
      vertex -117.246 26.1086 0
    endloop
  endfacet
  facet normal 0.992403 0.123031 0
    outer loop
      vertex -116.726 21.9108 18
      vertex -117.246 26.1086 0
      vertex -117.246 26.1086 18
    endloop
  endfacet
  facet normal 0.992403 0.123031 0
    outer loop
      vertex -117.246 26.1086 0
      vertex -116.726 21.9108 18
      vertex -116.726 21.9108 0
    endloop
  endfacet
  facet normal 0.313415 -0.949616 0
    outer loop
      vertex -91.8731 66.1928 0
      vertex -87.8563 67.5185 18
      vertex -91.8731 66.1928 18
    endloop
  endfacet
  facet normal 0.313415 -0.949616 0
    outer loop
      vertex -87.8563 67.5185 18
      vertex -91.8731 66.1928 0
      vertex -87.8563 67.5185 0
    endloop
  endfacet
  facet normal 0.41194 -0.911211 0
    outer loop
      vertex -95.7274 64.4503 0
      vertex -91.8731 66.1928 18
      vertex -95.7274 64.4503 18
    endloop
  endfacet
  facet normal 0.41194 -0.911211 0
    outer loop
      vertex -91.8731 66.1928 18
      vertex -95.7274 64.4503 0
      vertex -91.8731 66.1928 0
    endloop
  endfacet
  facet normal 0.505862 -0.862614 0
    outer loop
      vertex -99.3761 62.3106 0
      vertex -95.7274 64.4503 18
      vertex -99.3761 62.3106 18
    endloop
  endfacet
  facet normal 0.505862 -0.862614 0
    outer loop
      vertex -95.7274 64.4503 18
      vertex -99.3761 62.3106 0
      vertex -95.7274 64.4503 0
    endloop
  endfacet
  facet normal 0.594124 -0.804373 0
    outer loop
      vertex -102.779 59.7975 0
      vertex -99.3761 62.3106 18
      vertex -102.779 59.7975 18
    endloop
  endfacet
  facet normal 0.594124 -0.804373 0
    outer loop
      vertex -99.3761 62.3106 18
      vertex -102.779 59.7975 0
      vertex -99.3761 62.3106 0
    endloop
  endfacet
  facet normal 0.675746 -0.737135 0
    outer loop
      vertex -105.897 56.9392 0
      vertex -102.779 59.7975 18
      vertex -105.897 56.9392 18
    endloop
  endfacet
  facet normal 0.675746 -0.737135 0
    outer loop
      vertex -102.779 59.7975 18
      vertex -105.897 56.9392 0
      vertex -102.779 59.7975 0
    endloop
  endfacet
  facet normal 0.749804 -0.66166 0
    outer loop
      vertex -108.695 53.7676 18
      vertex -105.897 56.9392 0
      vertex -105.897 56.9392 18
    endloop
  endfacet
  facet normal 0.749804 -0.66166 0
    outer loop
      vertex -105.897 56.9392 0
      vertex -108.695 53.7676 18
      vertex -108.695 53.7676 0
    endloop
  endfacet
  facet normal 0.815486 -0.578777 0
    outer loop
      vertex -111.143 50.3182 18
      vertex -108.695 53.7676 0
      vertex -108.695 53.7676 18
    endloop
  endfacet
  facet normal 0.815486 -0.578777 0
    outer loop
      vertex -108.695 53.7676 0
      vertex -111.143 50.3182 18
      vertex -111.143 50.3182 0
    endloop
  endfacet
  facet normal 0.872043 -0.489428 0
    outer loop
      vertex -113.214 46.6295 18
      vertex -111.143 50.3182 0
      vertex -111.143 50.3182 18
    endloop
  endfacet
  facet normal 0.872043 -0.489428 0
    outer loop
      vertex -111.143 50.3182 0
      vertex -113.214 46.6295 18
      vertex -113.214 46.6295 0
    endloop
  endfacet
  facet normal 0.918851 -0.394605 0
    outer loop
      vertex -114.883 42.7429 18
      vertex -113.214 46.6295 0
      vertex -113.214 46.6295 18
    endloop
  endfacet
  facet normal 0.918851 -0.394605 0
    outer loop
      vertex -113.214 46.6295 0
      vertex -114.883 42.7429 18
      vertex -114.883 42.7429 0
    endloop
  endfacet
  facet normal 0.955384 -0.295367 0
    outer loop
      vertex -116.132 38.7017 18
      vertex -114.883 42.7429 0
      vertex -114.883 42.7429 18
    endloop
  endfacet
  facet normal 0.955384 -0.295367 0
    outer loop
      vertex -114.883 42.7429 0
      vertex -116.132 38.7017 18
      vertex -116.132 38.7017 0
    endloop
  endfacet
  facet normal 0.981232 -0.192829 0
    outer loop
      vertex -116.948 34.5512 18
      vertex -116.132 38.7017 0
      vertex -116.132 38.7017 18
    endloop
  endfacet
  facet normal 0.981232 -0.192829 0
    outer loop
      vertex -116.132 38.7017 0
      vertex -116.948 34.5512 18
      vertex -116.948 34.5512 0
    endloop
  endfacet
  facet normal 0.996109 -0.0881336 0
    outer loop
      vertex -117.321 30.3378 18
      vertex -116.948 34.5512 0
      vertex -116.948 34.5512 18
    endloop
  endfacet
  facet normal 0.996109 -0.0881336 0
    outer loop
      vertex -116.948 34.5512 0
      vertex -117.321 30.3378 18
      vertex -117.321 30.3378 0
    endloop
  endfacet
  facet normal 0.984509 0.175333 0
    outer loop
      vertex -113.946 6.3 18
      vertex -116.726 21.9108 0
      vertex -116.726 21.9108 18
    endloop
  endfacet
  facet normal 0.984509 0.175333 0
    outer loop
      vertex -116.726 21.9108 0
      vertex -113.946 6.3 18
      vertex -113.946 6.3 0
    endloop
  endfacet
  facet normal -0.132314 -0.991208 0
    outer loop
      vertex -42.4136 73.8135 0
      vertex -39.0978 73.3709 18
      vertex -42.4136 73.8135 18
    endloop
  endfacet
  facet normal -0.132314 -0.991208 -0
    outer loop
      vertex -39.0978 73.3709 18
      vertex -42.4136 73.8135 0
      vertex -39.0978 73.3709 0
    endloop
  endfacet
  facet normal -0.0490293 -0.998797 0
    outer loop
      vertex -45.7549 73.9775 0
      vertex -42.4136 73.8135 18
      vertex -45.7549 73.9775 18
    endloop
  endfacet
  facet normal -0.0490293 -0.998797 -0
    outer loop
      vertex -42.4136 73.8135 18
      vertex -45.7549 73.9775 0
      vertex -42.4136 73.8135 0
    endloop
  endfacet
  facet normal 0.117991 -0.993015 0
    outer loop
      vertex -52.4201 73.4671 0
      vertex -49.0982 73.8618 18
      vertex -52.4201 73.4671 18
    endloop
  endfacet
  facet normal 0.117991 -0.993015 0
    outer loop
      vertex -49.0982 73.8618 18
      vertex -52.4201 73.4671 0
      vertex -49.0982 73.8618 0
    endloop
  endfacet
  facet normal 0.0345997 -0.999401 0
    outer loop
      vertex -49.0982 73.8618 0
      vertex -45.7549 73.9775 18
      vertex -49.0982 73.8618 18
    endloop
  endfacet
  facet normal 0.0345997 -0.999401 0
    outer loop
      vertex -45.7549 73.9775 18
      vertex -49.0982 73.8618 0
      vertex -45.7549 73.9775 0
    endloop
  endfacet
  facet normal 0.159409 -0.987213 0
    outer loop
      vertex -83.722 68.4126 0
      vertex -52.4201 73.4671 18
      vertex -83.722 68.4126 18
    endloop
  endfacet
  facet normal 0.159409 -0.987213 0
    outer loop
      vertex -52.4201 73.4671 18
      vertex -83.722 68.4126 0
      vertex -52.4201 73.4671 0
    endloop
  endfacet
  facet normal -0.173648 -0.984808 0
    outer loop
      vertex -39.0978 73.3709 0
      vertex -6.3 67.5877 18
      vertex -39.0978 73.3709 18
    endloop
  endfacet
  facet normal -0.173648 -0.984808 -0
    outer loop
      vertex -6.3 67.5877 18
      vertex -39.0978 73.3709 0
      vertex -6.3 67.5877 0
    endloop
  endfacet
  facet normal 0 0 1
    outer loop
      vertex -6.3 96.0197 18
      vertex -8.2 81.3 18
      vertex -6.3 78.8 18
    endloop
  endfacet
  facet normal 0 0 1
    outer loop
      vertex -6.3 96.0197 18
      vertex -13.8 81.3 18
      vertex -8.2 81.3 18
    endloop
  endfacet
  facet normal -0 0 1
    outer loop
      vertex -37.9499 93.0495 18
      vertex -13.8 81.3 18
      vertex -32.6454 100.665 18
    endloop
  endfacet
  facet normal 0 0 1
    outer loop
      vertex -32.6454 100.665 18
      vertex -13.8 81.3 18
      vertex -6.3 96.0197 18
    endloop
  endfacet
  facet normal 0 0 1
    outer loop
      vertex -6.3 78.8 18
      vertex -8.2 81.3 18
      vertex -8.2 78.8 18
    endloop
  endfacet
  facet normal 0 0 1
    outer loop
      vertex -8.2 70.7 18
      vertex -6.3 73.2 18
      vertex -8.2 73.2 18
    endloop
  endfacet
  facet normal 0 0 1
    outer loop
      vertex -6.3 73.2 18
      vertex -8.2 70.7 18
      vertex -6.3 67.5877 18
    endloop
  endfacet
  facet normal -0 0 1
    outer loop
      vertex -13.8 70.7 18
      vertex -6.3 67.5877 18
      vertex -8.2 70.7 18
    endloop
  endfacet
  facet normal 0 0 1
    outer loop
      vertex -37.3333 96.4932 18
      vertex -32.6454 100.665 18
      vertex -33.6721 100.712 18
    endloop
  endfacet
  facet normal 0 0 1
    outer loop
      vertex -37.3333 96.4932 18
      vertex -33.6721 100.712 18
      vertex -34.6769 100.496 18
    endloop
  endfacet
  facet normal 0 0 1
    outer loop
      vertex -37.3333 96.4932 18
      vertex -34.6769 100.496 18
      vertex -35.5934 100.031 18
    endloop
  endfacet
  facet normal 0 0 1
    outer loop
      vertex -37.3333 96.4932 18
      vertex -35.5934 100.031 18
      vertex -36.3611 99.3475 18
    endloop
  endfacet
  facet normal 0 0 1
    outer loop
      vertex -37.3333 96.4932 18
      vertex -36.3611 99.3475 18
      vertex -36.9294 98.4912 18
    endloop
  endfacet
  facet normal 0 0 1
    outer loop
      vertex -37.3333 96.4932 18
      vertex -36.9294 98.4912 18
      vertex -37.2607 97.5184 18
    endloop
  endfacet
  facet normal 0 0 1
    outer loop
      vertex -32.6454 100.665 18
      vertex -37.3333 96.4932 18
      vertex -37.438 94.7349 18
    endloop
  endfacet
  facet normal 0 0 1
    outer loop
      vertex -32.6454 100.665 18
      vertex -37.438 94.7349 18
      vertex -37.9499 93.0495 18
    endloop
  endfacet
  facet normal -0 0 1
    outer loop
      vertex -38.8408 91.53 18
      vertex -13.8 81.3 18
      vertex -37.9499 93.0495 18
    endloop
  endfacet
  facet normal 0 0 1
    outer loop
      vertex -39.0978 73.3709 18
      vertex -13.8 81.3 18
      vertex -38.8408 91.53 18
    endloop
  endfacet
  facet normal 0 0 1
    outer loop
      vertex -13.8 70.7 18
      vertex -39.0978 73.3709 18
      vertex -6.3 67.5877 18
    endloop
  endfacet
  facet normal 0 0 1
    outer loop
      vertex -13.8 81.3 18
      vertex -39.0978 73.3709 18
      vertex -13.8 70.7 18
    endloop
  endfacet
  facet normal -0 0 1
    outer loop
      vertex -40.0615 90.2602 18
      vertex -39.0978 73.3709 18
      vertex -38.8408 91.53 18
    endloop
  endfacet
  facet normal -0 0 1
    outer loop
      vertex -41.5447 89.3101 18
      vertex -39.0978 73.3709 18
      vertex -40.0615 90.2602 18
    endloop
  endfacet
  facet normal 0 0 1
    outer loop
      vertex -41.5447 89.3101 18
      vertex -42.4136 73.8135 18
      vertex -39.0978 73.3709 18
    endloop
  endfacet
  facet normal -0 0 1
    outer loop
      vertex -43.2086 88.7322 18
      vertex -42.4136 73.8135 18
      vertex -41.5447 89.3101 18
    endloop
  endfacet
  facet normal -0 0 1
    outer loop
      vertex -44.9614 88.5582 18
      vertex -42.4136 73.8135 18
      vertex -43.2086 88.7322 18
    endloop
  endfacet
  facet normal 0 0 1
    outer loop
      vertex -44.9614 88.5582 18
      vertex -45.7549 73.9775 18
      vertex -42.4136 73.8135 18
    endloop
  endfacet
  facet normal 0 0 1
    outer loop
      vertex -46.7065 88.7979 18
      vertex -45.7549 73.9775 18
      vertex -44.9614 88.5582 18
    endloop
  endfacet
  facet normal 0 0 1
    outer loop
      vertex -49.0982 73.8618 18
      vertex -46.7065 88.7979 18
      vertex -48.3475 89.4379 18
    endloop
  endfacet
  facet normal 0 0 1
    outer loop
      vertex -46.7065 88.7979 18
      vertex -49.0982 73.8618 18
      vertex -45.7549 73.9775 18
    endloop
  endfacet
  facet normal 0 0 1
    outer loop
      vertex -52.4201 73.4671 18
      vertex -48.3475 89.4379 18
      vertex -49.794 90.443 18
    endloop
  endfacet
  facet normal 0 0 1
    outer loop
      vertex -52.4201 73.4671 18
      vertex -49.794 90.443 18
      vertex -50.9661 91.7578 18
    endloop
  endfacet
  facet normal 0 0 1
    outer loop
      vertex -52.4201 73.4671 18
      vertex -50.9661 91.7578 18
      vertex -51.7993 93.3097 18
    endloop
  endfacet
  facet normal 0 0 1
    outer loop
      vertex -56.9055 101.105 18
      vertex -51.7993 93.3097 18
      vertex -52.2476 95.0131 18
    endloop
  endfacet
  facet normal 0 0 1
    outer loop
      vertex -56.9055 101.105 18
      vertex -52.2862 96.7741 18
      vertex -52.3223 97.8143 18
    endloop
  endfacet
  facet normal 0 0 1
    outer loop
      vertex -48.3475 89.4379 18
      vertex -52.4201 73.4671 18
      vertex -49.0982 73.8618 18
    endloop
  endfacet
  facet normal 0 0 1
    outer loop
      vertex -52.2862 96.7741 18
      vertex -56.9055 101.105 18
      vertex -52.2476 95.0131 18
    endloop
  endfacet
  facet normal 0 0 1
    outer loop
      vertex -56.9055 101.105 18
      vertex -52.3223 97.8143 18
      vertex -52.6256 98.81 18
    endloop
  endfacet
  facet normal 0 0 1
    outer loop
      vertex -56.9055 101.105 18
      vertex -52.6256 98.81 18
      vertex -53.1754 99.6938 18
    endloop
  endfacet
  facet normal 0 0 1
    outer loop
      vertex -56.9055 101.105 18
      vertex -53.1754 99.6938 18
      vertex -53.9347 100.406 18
    endloop
  endfacet
  facet normal 0 0 1
    outer loop
      vertex -56.9055 101.105 18
      vertex -53.9347 100.406 18
      vertex -54.852 100.898 18
    endloop
  endfacet
  facet normal -0 0 1
    outer loop
      vertex -56.9055 101.105 18
      vertex -54.852 100.898 18
      vertex -55.8651 101.136 18
    endloop
  endfacet
  facet normal 0 0 1
    outer loop
      vertex -51.7993 93.3097 18
      vertex -56.9055 101.105 18
      vertex -83.722 68.4126 18
    endloop
  endfacet
  facet normal 0 0 1
    outer loop
      vertex -51.7993 93.3097 18
      vertex -83.722 68.4126 18
      vertex -52.4201 73.4671 18
    endloop
  endfacet
  facet normal 0 0 1
    outer loop
      vertex -56.9055 101.105 18
      vertex -87.8563 67.5185 18
      vertex -83.722 68.4126 18
    endloop
  endfacet
  facet normal -0 0 1
    outer loop
      vertex -144.017 87.0393 18
      vertex -87.8563 67.5185 18
      vertex -56.9055 101.105 18
    endloop
  endfacet
  facet normal 0 0 1
    outer loop
      vertex -87.8563 67.5185 18
      vertex -144.017 87.0393 18
      vertex -91.8731 66.1928 18
    endloop
  endfacet
  facet normal 0 0 1
    outer loop
      vertex -91.8731 66.1928 18
      vertex -144.017 87.0393 18
      vertex -95.7274 64.4503 18
    endloop
  endfacet
  facet normal 0 0 1
    outer loop
      vertex -95.7274 64.4503 18
      vertex -144.017 87.0393 18
      vertex -99.3761 62.3106 18
    endloop
  endfacet
  facet normal 0 0 1
    outer loop
      vertex -134.3 13.8 18
      vertex -117.321 30.3378 18
      vertex -116.948 34.5512 18
    endloop
  endfacet
  facet normal 0 0 1
    outer loop
      vertex -154.22 72.7461 18
      vertex -116.948 34.5512 18
      vertex -116.132 38.7017 18
    endloop
  endfacet
  facet normal 0 0 1
    outer loop
      vertex -117.321 30.3378 18
      vertex -134.3 13.8 18
      vertex -123.7 13.8 18
    endloop
  endfacet
  facet normal 0 0 1
    outer loop
      vertex -149.232 73.6917 18
      vertex -116.132 38.7017 18
      vertex -114.883 42.7429 18
    endloop
  endfacet
  facet normal 0 0 1
    outer loop
      vertex -147.459 74.2897 18
      vertex -114.883 42.7429 18
      vertex -113.214 46.6295 18
    endloop
  endfacet
  facet normal 0 0 1
    outer loop
      vertex -145.889 75.3079 18
      vertex -113.214 46.6295 18
      vertex -111.143 50.3182 18
    endloop
  endfacet
  facet normal 0 0 1
    outer loop
      vertex -134.3 13.8 18
      vertex -142.386 6.3 18
      vertex -134.3 8.2 18
    endloop
  endfacet
  facet normal -0 0 1
    outer loop
      vertex -154.22 72.7461 18
      vertex -116.132 38.7017 18
      vertex -149.232 73.6917 18
    endloop
  endfacet
  facet normal 0 0 1
    outer loop
      vertex -144.621 76.6829 18
      vertex -111.143 50.3182 18
      vertex -108.695 53.7676 18
    endloop
  endfacet
  facet normal 0 0 1
    outer loop
      vertex -105.897 56.9392 18
      vertex -143.732 78.3291 18
      vertex -108.695 53.7676 18
    endloop
  endfacet
  facet normal -0 0 1
    outer loop
      vertex -143.732 78.3291 18
      vertex -105.897 56.9392 18
      vertex -143.278 80.1442 18
    endloop
  endfacet
  facet normal 0 0 1
    outer loop
      vertex -102.779 59.7975 18
      vertex -143.278 80.1442 18
      vertex -105.897 56.9392 18
    endloop
  endfacet
  facet normal -0 -0 1
    outer loop
      vertex -143.287 82.0151 18
      vertex -99.3761 62.3106 18
      vertex -144.017 87.0393 18
    endloop
  endfacet
  facet normal 0 0 1
    outer loop
      vertex -102.779 59.7975 18
      vertex -143.287 82.0151 18
      vertex -143.278 80.1442 18
    endloop
  endfacet
  facet normal 0 0 1
    outer loop
      vertex -99.3761 62.3106 18
      vertex -143.287 82.0151 18
      vertex -102.779 59.7975 18
    endloop
  endfacet
  facet normal 0 0 1
    outer loop
      vertex -143.287 82.0151 18
      vertex -144.017 87.0393 18
      vertex -143.759 83.8255 18
    endloop
  endfacet
  facet normal 0 0 1
    outer loop
      vertex -144.665 85.4626 18
      vertex -144.017 87.0393 18
      vertex -144.261 86.9671 18
    endloop
  endfacet
  facet normal 0 0 1
    outer loop
      vertex -144.665 85.4626 18
      vertex -144.261 86.9671 18
      vertex -144.479 86.8356 18
    endloop
  endfacet
  facet normal 0 0 1
    outer loop
      vertex -144.665 85.4626 18
      vertex -144.479 86.8356 18
      vertex -144.656 86.6535 18
    endloop
  endfacet
  facet normal 0 0 1
    outer loop
      vertex -144.017 87.0393 18
      vertex -144.665 85.4626 18
      vertex -143.759 83.8255 18
    endloop
  endfacet
  facet normal -0 0 1
    outer loop
      vertex -144.782 86.4324 18
      vertex -144.665 85.4626 18
      vertex -144.656 86.6535 18
    endloop
  endfacet
  facet normal 0 0 1
    outer loop
      vertex -144.782 86.4324 18
      vertex -144.788 85.6856 18
      vertex -144.665 85.4626 18
    endloop
  endfacet
  facet normal -0 0 1
    outer loop
      vertex -144.848 86.1867 18
      vertex -144.788 85.6856 18
      vertex -144.782 86.4324 18
    endloop
  endfacet
  facet normal 0 0 1
    outer loop
      vertex -144.788 85.6856 18
      vertex -144.848 86.1867 18
      vertex -144.85 85.9323 18
    endloop
  endfacet
  facet normal 0 0 1
    outer loop
      vertex -123.7 13.8 18
      vertex -117.246 26.1086 18
      vertex -117.321 30.3378 18
    endloop
  endfacet
  facet normal 0 0 1
    outer loop
      vertex -123.7 13.8 18
      vertex -116.726 21.9108 18
      vertex -117.246 26.1086 18
    endloop
  endfacet
  facet normal -0 0 1
    outer loop
      vertex -123.7 13.8 18
      vertex -113.946 6.3 18
      vertex -116.726 21.9108 18
    endloop
  endfacet
  facet normal -0 0 1
    outer loop
      vertex -123.7 8.2 18
      vertex -113.946 6.3 18
      vertex -123.7 13.8 18
    endloop
  endfacet
  facet normal 0 0 1
    outer loop
      vertex -126.2 6.3 18
      vertex -123.7 8.2 18
      vertex -126.2 8.2 18
    endloop
  endfacet
  facet normal 0 0 1
    outer loop
      vertex -123.7 8.2 18
      vertex -126.2 6.3 18
      vertex -113.946 6.3 18
    endloop
  endfacet
  facet normal -0 0 1
    outer loop
      vertex -134.3 8.2 18
      vertex -131.8 6.3 18
      vertex -131.8 8.2 18
    endloop
  endfacet
  facet normal 0 0 1
    outer loop
      vertex -131.8 6.3 18
      vertex -134.3 8.2 18
      vertex -142.386 6.3 18
    endloop
  endfacet
  facet normal -0 0 1
    outer loop
      vertex -144.621 76.6829 18
      vertex -108.695 53.7676 18
      vertex -143.732 78.3291 18
    endloop
  endfacet
  facet normal 0 0 1
    outer loop
      vertex -111.143 50.3182 18
      vertex -144.621 76.6829 18
      vertex -145.889 75.3079 18
    endloop
  endfacet
  facet normal 0 0 1
    outer loop
      vertex -113.214 46.6295 18
      vertex -145.889 75.3079 18
      vertex -147.459 74.2897 18
    endloop
  endfacet
  facet normal 0 0 1
    outer loop
      vertex -114.883 42.7429 18
      vertex -147.459 74.2897 18
      vertex -149.232 73.6917 18
    endloop
  endfacet
  facet normal 0 0 1
    outer loop
      vertex -116.948 34.5512 18
      vertex -154.22 72.7461 18
      vertex -134.3 13.8 18
    endloop
  endfacet
  facet normal 0 0 1
    outer loop
      vertex -154.22 72.7461 18
      vertex -149.232 73.6917 18
      vertex -151.097 73.5512 18
    endloop
  endfacet
  facet normal 0 0 1
    outer loop
      vertex -154.22 72.7461 18
      vertex -151.097 73.5512 18
      vertex -152.94 73.8768 18
    endloop
  endfacet
  facet normal 0 0 1
    outer loop
      vertex -154.22 72.7461 18
      vertex -152.94 73.8768 18
      vertex -153.191 73.9204 18
    endloop
  endfacet
  facet normal 0 0 1
    outer loop
      vertex -154.22 72.7461 18
      vertex -153.191 73.9204 18
      vertex -153.446 73.8991 18
    endloop
  endfacet
  facet normal 0 0 1
    outer loop
      vertex -154.22 72.7461 18
      vertex -153.446 73.8991 18
      vertex -153.686 73.814 18
    endloop
  endfacet
  facet normal 0 0 1
    outer loop
      vertex -154.22 72.7461 18
      vertex -153.686 73.814 18
      vertex -153.897 73.6709 18
    endloop
  endfacet
  facet normal 0 0 1
    outer loop
      vertex -154.22 72.7461 18
      vertex -153.897 73.6709 18
      vertex -154.066 73.4789 18
    endloop
  endfacet
  facet normal 0 0 1
    outer loop
      vertex -154.22 72.7461 18
      vertex -154.066 73.4789 18
      vertex -154.18 73.2507 18
    endloop
  endfacet
  facet normal 0 0 1
    outer loop
      vertex -134.3 13.8 18
      vertex -154.22 72.7461 18
      vertex -142.386 6.3 18
    endloop
  endfacet
  facet normal 0 -0 1
    outer loop
      vertex -154.22 72.7461 18
      vertex -154.18 73.2507 18
      vertex -154.232 73.001 18
    endloop
  endfacet
  facet normal 0 0 -1
    outer loop
      vertex -131.8 6.3 0
      vertex -134.3 8.2 0
      vertex -131.8 8.2 0
    endloop
  endfacet
  facet normal -0 0 -1
    outer loop
      vertex -134.3 8.2 0
      vertex -142.386 6.3 0
      vertex -134.3 13.8 0
    endloop
  endfacet
  facet normal 0 0 -1
    outer loop
      vertex -142.386 6.3 0
      vertex -134.3 8.2 0
      vertex -131.8 6.3 0
    endloop
  endfacet
  facet normal -0 0 -1
    outer loop
      vertex -116.726 21.9108 0
      vertex -123.7 13.8 0
      vertex -117.246 26.1086 0
    endloop
  endfacet
  facet normal 0 0 -1
    outer loop
      vertex -113.946 6.3 0
      vertex -123.7 13.8 0
      vertex -116.726 21.9108 0
    endloop
  endfacet
  facet normal 0 0 -1
    outer loop
      vertex -123.7 13.8 0
      vertex -113.946 6.3 0
      vertex -123.7 8.2 0
    endloop
  endfacet
  facet normal 0 0 -1
    outer loop
      vertex -126.2 6.3 0
      vertex -123.7 8.2 0
      vertex -113.946 6.3 0
    endloop
  endfacet
  facet normal -0 0 -1
    outer loop
      vertex -123.7 8.2 0
      vertex -126.2 6.3 0
      vertex -126.2 8.2 0
    endloop
  endfacet
  facet normal 0 0 -1
    outer loop
      vertex -6.3 67.5877 0
      vertex -8.2 70.7 0
      vertex -6.3 73.2 0
    endloop
  endfacet
  facet normal 0 0 -1
    outer loop
      vertex -6.3 67.5877 0
      vertex -13.8 70.7 0
      vertex -8.2 70.7 0
    endloop
  endfacet
  facet normal 0 0 -1
    outer loop
      vertex -39.0978 73.3709 0
      vertex -13.8 81.3 0
      vertex -13.8 70.7 0
    endloop
  endfacet
  facet normal 0 0 -1
    outer loop
      vertex -13.8 81.3 0
      vertex -37.9499 93.0495 0
      vertex -32.6454 100.665 0
    endloop
  endfacet
  facet normal 0 -0 -1
    outer loop
      vertex -37.438 94.7349 0
      vertex -32.6454 100.665 0
      vertex -37.9499 93.0495 0
    endloop
  endfacet
  facet normal -0 0 -1
    outer loop
      vertex -32.6454 100.665 0
      vertex -37.3333 96.4932 0
      vertex -33.6721 100.712 0
    endloop
  endfacet
  facet normal 0 0 -1
    outer loop
      vertex -33.6721 100.712 0
      vertex -37.3333 96.4932 0
      vertex -34.6769 100.496 0
    endloop
  endfacet
  facet normal 0 0 -1
    outer loop
      vertex -34.6769 100.496 0
      vertex -37.3333 96.4932 0
      vertex -35.5934 100.031 0
    endloop
  endfacet
  facet normal 0 0 -1
    outer loop
      vertex -35.5934 100.031 0
      vertex -37.3333 96.4932 0
      vertex -36.3611 99.3475 0
    endloop
  endfacet
  facet normal 0 0 -1
    outer loop
      vertex -36.9294 98.4912 0
      vertex -37.3333 96.4932 0
      vertex -37.2607 97.5184 0
    endloop
  endfacet
  facet normal 0 0 -1
    outer loop
      vertex -36.3611 99.3475 0
      vertex -37.3333 96.4932 0
      vertex -36.9294 98.4912 0
    endloop
  endfacet
  facet normal 0 -0 -1
    outer loop
      vertex -37.3333 96.4932 0
      vertex -32.6454 100.665 0
      vertex -37.438 94.7349 0
    endloop
  endfacet
  facet normal 0 0 -1
    outer loop
      vertex -13.8 81.3 0
      vertex -38.8408 91.53 0
      vertex -37.9499 93.0495 0
    endloop
  endfacet
  facet normal 0 0 -1
    outer loop
      vertex -39.0978 73.3709 0
      vertex -13.8 70.7 0
      vertex -6.3 67.5877 0
    endloop
  endfacet
  facet normal -0 0 -1
    outer loop
      vertex -13.8 81.3 0
      vertex -39.0978 73.3709 0
      vertex -38.8408 91.53 0
    endloop
  endfacet
  facet normal 0 0 -1
    outer loop
      vertex -39.0978 73.3709 0
      vertex -40.0615 90.2602 0
      vertex -38.8408 91.53 0
    endloop
  endfacet
  facet normal 0 0 -1
    outer loop
      vertex -39.0978 73.3709 0
      vertex -41.5447 89.3101 0
      vertex -40.0615 90.2602 0
    endloop
  endfacet
  facet normal 0 0 -1
    outer loop
      vertex -42.4136 73.8135 0
      vertex -41.5447 89.3101 0
      vertex -39.0978 73.3709 0
    endloop
  endfacet
  facet normal 0 0 -1
    outer loop
      vertex -42.4136 73.8135 0
      vertex -43.2086 88.7322 0
      vertex -41.5447 89.3101 0
    endloop
  endfacet
  facet normal 0 0 -1
    outer loop
      vertex -42.4136 73.8135 0
      vertex -44.9614 88.5582 0
      vertex -43.2086 88.7322 0
    endloop
  endfacet
  facet normal 0 0 -1
    outer loop
      vertex -45.7549 73.9775 0
      vertex -44.9614 88.5582 0
      vertex -42.4136 73.8135 0
    endloop
  endfacet
  facet normal 0 0 -1
    outer loop
      vertex -45.7549 73.9775 0
      vertex -46.7065 88.7979 0
      vertex -44.9614 88.5582 0
    endloop
  endfacet
  facet normal 0 0 -1
    outer loop
      vertex -49.0982 73.8618 0
      vertex -46.7065 88.7979 0
      vertex -45.7549 73.9775 0
    endloop
  endfacet
  facet normal -0 0 -1
    outer loop
      vertex -46.7065 88.7979 0
      vertex -49.0982 73.8618 0
      vertex -48.3475 89.4379 0
    endloop
  endfacet
  facet normal 0 0 -1
    outer loop
      vertex -52.4201 73.4671 0
      vertex -48.3475 89.4379 0
      vertex -49.0982 73.8618 0
    endloop
  endfacet
  facet normal -0 0 -1
    outer loop
      vertex -48.3475 89.4379 0
      vertex -52.4201 73.4671 0
      vertex -49.794 90.443 0
    endloop
  endfacet
  facet normal -0 0 -1
    outer loop
      vertex -49.794 90.443 0
      vertex -52.4201 73.4671 0
      vertex -50.9661 91.7578 0
    endloop
  endfacet
  facet normal -0 0 -1
    outer loop
      vertex -50.9661 91.7578 0
      vertex -52.4201 73.4671 0
      vertex -51.7993 93.3097 0
    endloop
  endfacet
  facet normal 0 0 -1
    outer loop
      vertex -56.9055 101.105 0
      vertex -52.2862 96.7741 0
      vertex -52.2476 95.0131 0
    endloop
  endfacet
  facet normal 0 0 -1
    outer loop
      vertex -83.722 68.4126 0
      vertex -51.7993 93.3097 0
      vertex -52.4201 73.4671 0
    endloop
  endfacet
  facet normal 0 -0 -1
    outer loop
      vertex -56.9055 101.105 0
      vertex -51.7993 93.3097 0
      vertex -83.722 68.4126 0
    endloop
  endfacet
  facet normal 0 0 -1
    outer loop
      vertex -52.2862 96.7741 0
      vertex -56.9055 101.105 0
      vertex -52.3223 97.8143 0
    endloop
  endfacet
  facet normal 0 0 -1
    outer loop
      vertex -52.3223 97.8143 0
      vertex -56.9055 101.105 0
      vertex -52.6256 98.81 0
    endloop
  endfacet
  facet normal 0 0 -1
    outer loop
      vertex -52.6256 98.81 0
      vertex -56.9055 101.105 0
      vertex -53.1754 99.6938 0
    endloop
  endfacet
  facet normal 0 0 -1
    outer loop
      vertex -53.1754 99.6938 0
      vertex -56.9055 101.105 0
      vertex -53.9347 100.406 0
    endloop
  endfacet
  facet normal 0 0 -1
    outer loop
      vertex -53.9347 100.406 0
      vertex -56.9055 101.105 0
      vertex -54.852 100.898 0
    endloop
  endfacet
  facet normal 0 0 -1
    outer loop
      vertex -54.852 100.898 0
      vertex -56.9055 101.105 0
      vertex -55.8651 101.136 0
    endloop
  endfacet
  facet normal 0 0 -1
    outer loop
      vertex -51.7993 93.3097 0
      vertex -56.9055 101.105 0
      vertex -52.2476 95.0131 0
    endloop
  endfacet
  facet normal 0 0 -1
    outer loop
      vertex -87.8563 67.5185 0
      vertex -56.9055 101.105 0
      vertex -83.722 68.4126 0
    endloop
  endfacet
  facet normal 0 0 -1
    outer loop
      vertex -144.017 87.0393 0
      vertex -87.8563 67.5185 0
      vertex -91.8731 66.1928 0
    endloop
  endfacet
  facet normal 0 0 -1
    outer loop
      vertex -144.017 87.0393 0
      vertex -91.8731 66.1928 0
      vertex -95.7274 64.4503 0
    endloop
  endfacet
  facet normal 0 0 -1
    outer loop
      vertex -144.017 87.0393 0
      vertex -95.7274 64.4503 0
      vertex -99.3761 62.3106 0
    endloop
  endfacet
  facet normal 0 0 -1
    outer loop
      vertex -143.287 82.0151 0
      vertex -99.3761 62.3106 0
      vertex -102.779 59.7975 0
    endloop
  endfacet
  facet normal 0 0 -1
    outer loop
      vertex -134.3 13.8 0
      vertex -117.246 26.1086 0
      vertex -123.7 13.8 0
    endloop
  endfacet
  facet normal -0 0 -1
    outer loop
      vertex -117.246 26.1086 0
      vertex -134.3 13.8 0
      vertex -117.321 30.3378 0
    endloop
  endfacet
  facet normal -0 0 -1
    outer loop
      vertex -117.321 30.3378 0
      vertex -134.3 13.8 0
      vertex -116.948 34.5512 0
    endloop
  endfacet
  facet normal 0 0 -1
    outer loop
      vertex -154.22 72.7461 0
      vertex -116.948 34.5512 0
      vertex -134.3 13.8 0
    endloop
  endfacet
  facet normal 0 0 -1
    outer loop
      vertex -116.948 34.5512 0
      vertex -154.22 72.7461 0
      vertex -116.132 38.7017 0
    endloop
  endfacet
  facet normal 0 0 -1
    outer loop
      vertex -116.132 38.7017 0
      vertex -149.232 73.6917 0
      vertex -114.883 42.7429 0
    endloop
  endfacet
  facet normal 0 -0 -1
    outer loop
      vertex -147.459 74.2897 0
      vertex -114.883 42.7429 0
      vertex -149.232 73.6917 0
    endloop
  endfacet
  facet normal 0 0 -1
    outer loop
      vertex -154.22 72.7461 0
      vertex -134.3 13.8 0
      vertex -142.386 6.3 0
    endloop
  endfacet
  facet normal 0 0 -1
    outer loop
      vertex -114.883 42.7429 0
      vertex -147.459 74.2897 0
      vertex -113.214 46.6295 0
    endloop
  endfacet
  facet normal 0 -0 -1
    outer loop
      vertex -145.889 75.3079 0
      vertex -113.214 46.6295 0
      vertex -147.459 74.2897 0
    endloop
  endfacet
  facet normal 0 0 -1
    outer loop
      vertex -143.732 78.3291 0
      vertex -105.897 56.9392 0
      vertex -108.695 53.7676 0
    endloop
  endfacet
  facet normal 0 0 -1
    outer loop
      vertex -143.278 80.1442 0
      vertex -102.779 59.7975 0
      vertex -105.897 56.9392 0
    endloop
  endfacet
  facet normal 0 0 -1
    outer loop
      vertex -143.287 82.0151 0
      vertex -102.779 59.7975 0
      vertex -143.278 80.1442 0
    endloop
  endfacet
  facet normal 0 0 -1
    outer loop
      vertex -99.3761 62.3106 0
      vertex -143.287 82.0151 0
      vertex -144.017 87.0393 0
    endloop
  endfacet
  facet normal 0 0 -1
    outer loop
      vertex -144.017 87.0393 0
      vertex -143.287 82.0151 0
      vertex -143.759 83.8255 0
    endloop
  endfacet
  facet normal 0 0 -1
    outer loop
      vertex -87.8563 67.5185 0
      vertex -144.017 87.0393 0
      vertex -56.9055 101.105 0
    endloop
  endfacet
  facet normal 0 0 -1
    outer loop
      vertex -144.665 85.4626 0
      vertex -144.017 87.0393 0
      vertex -143.759 83.8255 0
    endloop
  endfacet
  facet normal 0 0 -1
    outer loop
      vertex -144.017 87.0393 0
      vertex -144.665 85.4626 0
      vertex -144.261 86.9671 0
    endloop
  endfacet
  facet normal 0 0 -1
    outer loop
      vertex -144.261 86.9671 0
      vertex -144.665 85.4626 0
      vertex -144.479 86.8356 0
    endloop
  endfacet
  facet normal 0 0 -1
    outer loop
      vertex -144.479 86.8356 0
      vertex -144.665 85.4626 0
      vertex -144.656 86.6535 0
    endloop
  endfacet
  facet normal 0 0 -1
    outer loop
      vertex -144.665 85.4626 0
      vertex -144.782 86.4324 0
      vertex -144.656 86.6535 0
    endloop
  endfacet
  facet normal 0 0 -1
    outer loop
      vertex -144.788 85.6856 0
      vertex -144.782 86.4324 0
      vertex -144.665 85.4626 0
    endloop
  endfacet
  facet normal 0 0 -1
    outer loop
      vertex -144.788 85.6856 0
      vertex -144.848 86.1867 0
      vertex -144.782 86.4324 0
    endloop
  endfacet
  facet normal 0 -0 -1
    outer loop
      vertex -144.848 86.1867 0
      vertex -144.788 85.6856 0
      vertex -144.85 85.9323 0
    endloop
  endfacet
  facet normal -0 0 -1
    outer loop
      vertex -6.3 73.2 0
      vertex -8.2 70.7 0
      vertex -8.2 73.2 0
    endloop
  endfacet
  facet normal 0 0 -1
    outer loop
      vertex -8.2 81.3 0
      vertex -6.3 78.8 0
      vertex -8.2 78.8 0
    endloop
  endfacet
  facet normal 0 0 -1
    outer loop
      vertex -6.3 78.8 0
      vertex -8.2 81.3 0
      vertex -6.3 96.0197 0
    endloop
  endfacet
  facet normal 0 0 -1
    outer loop
      vertex -13.8 81.3 0
      vertex -6.3 96.0197 0
      vertex -8.2 81.3 0
    endloop
  endfacet
  facet normal -0 0 -1
    outer loop
      vertex -6.3 96.0197 0
      vertex -13.8 81.3 0
      vertex -32.6454 100.665 0
    endloop
  endfacet
  facet normal 0 0 -1
    outer loop
      vertex -105.897 56.9392 0
      vertex -143.732 78.3291 0
      vertex -143.278 80.1442 0
    endloop
  endfacet
  facet normal 0 0 -1
    outer loop
      vertex -108.695 53.7676 0
      vertex -144.621 76.6829 0
      vertex -143.732 78.3291 0
    endloop
  endfacet
  facet normal 0 0 -1
    outer loop
      vertex -111.143 50.3182 0
      vertex -144.621 76.6829 0
      vertex -108.695 53.7676 0
    endloop
  endfacet
  facet normal 0 -0 -1
    outer loop
      vertex -144.621 76.6829 0
      vertex -111.143 50.3182 0
      vertex -145.889 75.3079 0
    endloop
  endfacet
  facet normal 0 0 -1
    outer loop
      vertex -113.214 46.6295 0
      vertex -145.889 75.3079 0
      vertex -111.143 50.3182 0
    endloop
  endfacet
  facet normal 0 0 -1
    outer loop
      vertex -116.132 38.7017 0
      vertex -154.22 72.7461 0
      vertex -149.232 73.6917 0
    endloop
  endfacet
  facet normal 0 0 -1
    outer loop
      vertex -149.232 73.6917 0
      vertex -154.22 72.7461 0
      vertex -151.097 73.5512 0
    endloop
  endfacet
  facet normal -0 0 -1
    outer loop
      vertex -151.097 73.5512 0
      vertex -154.22 72.7461 0
      vertex -152.94 73.8768 0
    endloop
  endfacet
  facet normal -0 0 -1
    outer loop
      vertex -152.94 73.8768 0
      vertex -154.22 72.7461 0
      vertex -153.191 73.9204 0
    endloop
  endfacet
  facet normal 0 0 -1
    outer loop
      vertex -153.191 73.9204 0
      vertex -154.22 72.7461 0
      vertex -153.446 73.8991 0
    endloop
  endfacet
  facet normal 0 0 -1
    outer loop
      vertex -153.446 73.8991 0
      vertex -154.22 72.7461 0
      vertex -153.686 73.814 0
    endloop
  endfacet
  facet normal 0 0 -1
    outer loop
      vertex -153.686 73.814 0
      vertex -154.22 72.7461 0
      vertex -153.897 73.6709 0
    endloop
  endfacet
  facet normal 0 0 -1
    outer loop
      vertex -153.897 73.6709 0
      vertex -154.22 72.7461 0
      vertex -154.066 73.4789 0
    endloop
  endfacet
  facet normal 0 0 -1
    outer loop
      vertex -154.066 73.4789 0
      vertex -154.22 72.7461 0
      vertex -154.18 73.2507 0
    endloop
  endfacet
  facet normal 0 0 -1
    outer loop
      vertex -154.18 73.2507 0
      vertex -154.22 72.7461 0
      vertex -154.232 73.001 0
    endloop
  endfacet
  facet normal -0.876242 -0.48187 0.000426203
    outer loop
      vertex -144.78 85.667 12.4736
      vertex -144.665 85.4626 18
      vertex -144.788 85.6856 18
    endloop
  endfacet
  facet normal -0.965266 -0.26127 -0.000434782
    outer loop
      vertex -144.78 85.667 12.4736
      vertex -144.788 85.6856 18
      vertex -144.848 85.919 12.4736
    endloop
  endfacet
  facet normal -0.969486 -0.245145 0.000292729
    outer loop
      vertex -144.848 85.919 12.4736
      vertex -144.788 85.6856 18
      vertex -144.85 85.9323 18
    endloop
  endfacet
  facet normal -0.999997 -0.00251336 -0.000297698
    outer loop
      vertex -144.849 86.1801 12.4736
      vertex -144.848 85.919 12.4736
      vertex -144.85 85.9323 18
    endloop
  endfacet
  facet normal -0.867281 0.497819 0
    outer loop
      vertex -144.782 86.4324 1.42083
      vertex -144.652 86.6588 12.4736
      vertex -144.652 86.6588 1.42083
    endloop
  endfacet
  facet normal -0.867281 0.497819 0
    outer loop
      vertex -144.652 86.6588 12.4736
      vertex -144.782 86.4324 1.42083
      vertex -144.782 86.4324 12.4736
    endloop
  endfacet
  facet normal -0.715911 0.698191 -0.000583349
    outer loop
      vertex -144.652 86.6588 1.42083
      vertex -144.479 86.8356 0
      vertex -144.656 86.6535 0
    endloop
  endfacet
  facet normal -0.867281 0.497819 0.000595736
    outer loop
      vertex -144.652 86.6588 1.42083
      vertex -144.656 86.6535 0
      vertex -144.782 86.4324 1.42083
    endloop
  endfacet
  facet normal -0.868932 0.494931 0
    outer loop
      vertex -144.782 86.4324 1.42083
      vertex -144.656 86.6535 0
      vertex -144.782 86.4324 0
    endloop
  endfacet
  facet normal -0.965712 0.259614 0
    outer loop
      vertex -144.782 86.4324 1.42083
      vertex -144.782 86.4324 0
      vertex -144.848 86.1867 0
    endloop
  endfacet
  facet normal -0.999972 0.00743652 -0.000577543
    outer loop
      vertex -144.849 86.1801 1.42083
      vertex -144.848 86.1867 0
      vertex -144.85 85.9323 0
    endloop
  endfacet
  facet normal -0.969486 -0.245145 -0.00113858
    outer loop
      vertex -144.788 85.6856 0
      vertex -144.848 85.919 1.42083
      vertex -144.85 85.9323 0
    endloop
  endfacet
  facet normal -0.876241 -0.48187 -0.00165773
    outer loop
      vertex -144.665 85.4626 0
      vertex -144.78 85.667 1.42083
      vertex -144.788 85.6856 0
    endloop
  endfacet
  facet normal -0.966578 0.256375 0
    outer loop
      vertex -144.849 86.1801 1.42083
      vertex -144.782 86.4324 12.4736
      vertex -144.782 86.4324 1.42083
    endloop
  endfacet
  facet normal -0.966578 0.256375 0
    outer loop
      vertex -144.782 86.4324 12.4736
      vertex -144.849 86.1801 1.42083
      vertex -144.849 86.1801 12.4736
    endloop
  endfacet
  facet normal -0.966577 0.256374 0.000600491
    outer loop
      vertex -144.782 86.4324 1.42083
      vertex -144.848 86.1867 0
      vertex -144.849 86.1801 1.42083
    endloop
  endfacet
  facet normal -0.999972 0.00743652 0.000148486
    outer loop
      vertex -144.848 86.1867 18
      vertex -144.849 86.1801 12.4736
      vertex -144.85 85.9323 18
    endloop
  endfacet
  facet normal -0.966578 0.256375 -0.000154386
    outer loop
      vertex -144.848 86.1867 18
      vertex -144.782 86.4324 12.4736
      vertex -144.849 86.1801 12.4736
    endloop
  endfacet
  facet normal -0.708902 0.705307 0
    outer loop
      vertex -144.652 86.6588 1.42083
      vertex -144.468 86.8439 12.4736
      vertex -144.468 86.8439 1.42083
    endloop
  endfacet
  facet normal -0.708902 0.705307 0
    outer loop
      vertex -144.468 86.8439 12.4736
      vertex -144.652 86.6588 1.42083
      vertex -144.652 86.6588 12.4736
    endloop
  endfacet
  facet normal -0.516531 0.856268 -0.00113543
    outer loop
      vertex -144.468 86.8439 1.42083
      vertex -144.261 86.9671 0
      vertex -144.479 86.8356 0
    endloop
  endfacet
  facet normal -0.708901 0.705307 0.00115895
    outer loop
      vertex -144.468 86.8439 1.42083
      vertex -144.479 86.8356 0
      vertex -144.652 86.6588 1.42083
    endloop
  endfacet
  facet normal -0.965712 0.259614 0
    outer loop
      vertex -144.782 86.4324 18
      vertex -144.782 86.4324 12.4736
      vertex -144.848 86.1867 18
    endloop
  endfacet
  facet normal -0.868932 0.494931 0
    outer loop
      vertex -144.782 86.4324 18
      vertex -144.656 86.6535 18
      vertex -144.782 86.4324 12.4736
    endloop
  endfacet
  facet normal -0.715911 0.698191 0.000149979
    outer loop
      vertex -144.479 86.8356 18
      vertex -144.652 86.6588 12.4736
      vertex -144.656 86.6535 18
    endloop
  endfacet
  facet normal -0.516532 0.856268 0.00029192
    outer loop
      vertex -144.261 86.9671 18
      vertex -144.468 86.8439 12.4736
      vertex -144.479 86.8356 18
    endloop
  endfacet
  facet normal -0.283715 0.958909 0.000424874
    outer loop
      vertex -144.017 87.0393 18
      vertex -144.242 86.975 12.4736
      vertex -144.261 86.9671 18
    endloop
  endfacet
  facet normal -0.283714 0.958907 -0.00165256
    outer loop
      vertex -144.242 86.975 1.42083
      vertex -144.017 87.0393 0
      vertex -144.261 86.9671 0
    endloop
  endfacet
  facet normal -0.502172 0.864766 0.00169717
    outer loop
      vertex -144.242 86.975 1.42083
      vertex -144.261 86.9671 0
      vertex -144.468 86.8439 1.42083
    endloop
  endfacet
  facet normal -0.502173 0.864767 0
    outer loop
      vertex -144.242 86.975 1.42083
      vertex -144.468 86.8439 12.4736
      vertex -144.242 86.975 12.4736
    endloop
  endfacet
  facet normal -0.502173 0.864767 0
    outer loop
      vertex -144.468 86.8439 12.4736
      vertex -144.242 86.975 1.42083
      vertex -144.468 86.8439 1.42083
    endloop
  endfacet
  facet normal -0.708902 0.705307 -0.000297966
    outer loop
      vertex -144.479 86.8356 18
      vertex -144.468 86.8439 12.4736
      vertex -144.652 86.6588 12.4736
    endloop
  endfacet
  facet normal -0.502173 0.864767 -0.000436343
    outer loop
      vertex -144.261 86.9671 18
      vertex -144.242 86.975 12.4736
      vertex -144.468 86.8439 12.4736
    endloop
  endfacet
  facet normal -0.867281 0.497819 -0.000153164
    outer loop
      vertex -144.656 86.6535 18
      vertex -144.652 86.6588 12.4736
      vertex -144.782 86.4324 12.4736
    endloop
  endfacet
  facet normal -0.274103 0.9617 0
    outer loop
      vertex -144.017 87.0393 0
      vertex -144.242 86.975 12.4736
      vertex -144.017 87.0393 18
    endloop
  endfacet
  facet normal -0.274103 0.9617 0
    outer loop
      vertex -144.242 86.975 12.4736
      vertex -144.017 87.0393 0
      vertex -144.242 86.975 1.42083
    endloop
  endfacet
  facet normal -0.999996 -0.00251336 0.0011579
    outer loop
      vertex -144.848 85.919 1.42083
      vertex -144.849 86.1801 1.42083
      vertex -144.85 85.9323 0
    endloop
  endfacet
  facet normal -0.999997 -0.00251336 0
    outer loop
      vertex -144.848 85.919 1.42083
      vertex -144.849 86.1801 12.4736
      vertex -144.849 86.1801 1.42083
    endloop
  endfacet
  facet normal -0.999997 -0.00251336 0
    outer loop
      vertex -144.849 86.1801 12.4736
      vertex -144.848 85.919 1.42083
      vertex -144.848 85.919 12.4736
    endloop
  endfacet
  facet normal -0.965264 -0.261269 0.0016911
    outer loop
      vertex -144.788 85.6856 0
      vertex -144.78 85.667 1.42083
      vertex -144.848 85.919 1.42083
    endloop
  endfacet
  facet normal -0.87136 -0.490644 0
    outer loop
      vertex -144.665 85.4626 0
      vertex -144.78 85.667 12.4736
      vertex -144.78 85.667 1.42083
    endloop
  endfacet
  facet normal -0.87136 -0.490644 0
    outer loop
      vertex -144.78 85.667 12.4736
      vertex -144.665 85.4626 0
      vertex -144.665 85.4626 18
    endloop
  endfacet
  facet normal -0.965266 -0.26127 0
    outer loop
      vertex -144.78 85.667 1.42083
      vertex -144.848 85.919 12.4736
      vertex -144.848 85.919 1.42083
    endloop
  endfacet
  facet normal -0.965266 -0.26127 0
    outer loop
      vertex -144.848 85.919 12.4736
      vertex -144.78 85.667 1.42083
      vertex -144.78 85.667 12.4736
    endloop
  endfacet
  facet normal -0.87503 -0.484069 0
    outer loop
      vertex -143.759 83.8255 0
      vertex -144.665 85.4626 18
      vertex -144.665 85.4626 0
    endloop
  endfacet
  facet normal -0.87503 -0.484069 0
    outer loop
      vertex -144.665 85.4626 18
      vertex -143.759 83.8255 0
      vertex -143.759 83.8255 18
    endloop
  endfacet
  facet normal -0.967617 -0.252424 0
    outer loop
      vertex -143.287 82.0151 0
      vertex -143.759 83.8255 18
      vertex -143.759 83.8255 0
    endloop
  endfacet
  facet normal -0.967617 -0.252424 0
    outer loop
      vertex -143.759 83.8255 18
      vertex -143.287 82.0151 0
      vertex -143.287 82.0151 18
    endloop
  endfacet
  facet normal -0.999987 -0.00508094 0
    outer loop
      vertex -143.278 80.1442 0
      vertex -143.287 82.0151 18
      vertex -143.287 82.0151 0
    endloop
  endfacet
  facet normal -0.999987 -0.00508094 0
    outer loop
      vertex -143.287 82.0151 18
      vertex -143.278 80.1442 0
      vertex -143.278 80.1442 18
    endloop
  endfacet
  facet normal 0.174021 0.984742 -0
    outer loop
      vertex -151.097 73.5512 0
      vertex -152.94 73.8768 18
      vertex -151.097 73.5512 18
    endloop
  endfacet
  facet normal 0.174021 0.984742 0
    outer loop
      vertex -152.94 73.8768 18
      vertex -151.097 73.5512 0
      vertex -152.94 73.8768 0
    endloop
  endfacet
  facet normal -0.970129 0.242589 0
    outer loop
      vertex -143.732 78.3291 0
      vertex -143.278 80.1442 18
      vertex -143.278 80.1442 0
    endloop
  endfacet
  facet normal -0.970129 0.242589 0
    outer loop
      vertex -143.278 80.1442 18
      vertex -143.732 78.3291 0
      vertex -143.732 78.3291 18
    endloop
  endfacet
  facet normal -0.879898 0.475163 0
    outer loop
      vertex -144.621 76.6829 0
      vertex -143.732 78.3291 18
      vertex -143.732 78.3291 0
    endloop
  endfacet
  facet normal -0.879898 0.475163 0
    outer loop
      vertex -143.732 78.3291 18
      vertex -144.621 76.6829 0
      vertex -144.621 76.6829 18
    endloop
  endfacet
  facet normal -0.734909 0.678166 0
    outer loop
      vertex -145.889 75.3079 0
      vertex -144.621 76.6829 18
      vertex -144.621 76.6829 0
    endloop
  endfacet
  facet normal -0.734909 0.678166 0
    outer loop
      vertex -144.621 76.6829 18
      vertex -145.889 75.3079 0
      vertex -145.889 75.3079 18
    endloop
  endfacet
  facet normal -0.544198 0.838957 0
    outer loop
      vertex -145.889 75.3079 0
      vertex -147.459 74.2897 18
      vertex -145.889 75.3079 18
    endloop
  endfacet
  facet normal -0.544198 0.838957 0
    outer loop
      vertex -147.459 74.2897 18
      vertex -145.889 75.3079 0
      vertex -147.459 74.2897 0
    endloop
  endfacet
  facet normal -0.319602 0.947552 0
    outer loop
      vertex -147.459 74.2897 0
      vertex -149.232 73.6917 18
      vertex -147.459 74.2897 18
    endloop
  endfacet
  facet normal -0.319602 0.947552 0
    outer loop
      vertex -149.232 73.6917 18
      vertex -147.459 74.2897 0
      vertex -149.232 73.6917 0
    endloop
  endfacet
  facet normal -0.0751298 0.997174 0
    outer loop
      vertex -149.232 73.6917 0
      vertex -151.097 73.5512 18
      vertex -149.232 73.6917 18
    endloop
  endfacet
  facet normal -0.0751298 0.997174 0
    outer loop
      vertex -151.097 73.5512 18
      vertex -149.232 73.6917 0
      vertex -151.097 73.5512 0
    endloop
  endfacet
  facet normal 0.171134 0.985247 -0.00155512
    outer loop
      vertex -153.174 73.9195 1.35833
      vertex -152.94 73.8768 0
      vertex -153.191 73.9204 0
    endloop
  endfacet
  facet normal -0.0689164 0.997621 0.00158957
    outer loop
      vertex -153.174 73.9195 1.35833
      vertex -153.191 73.9204 0
      vertex -153.434 73.9015 1.35833
    endloop
  endfacet
  facet normal -0.0837185 0.996489 -0.0010707
    outer loop
      vertex -153.434 73.9015 1.35833
      vertex -153.191 73.9204 0
      vertex -153.446 73.8991 0
    endloop
  endfacet
  facet normal -0.324885 0.945753 0.00107914
    outer loop
      vertex -153.434 73.9015 1.35833
      vertex -153.446 73.8991 0
      vertex -153.681 73.8167 1.35833
    endloop
  endfacet
  facet normal -0.894529 0.44701 0.000133098
    outer loop
      vertex -154.066 73.4789 18
      vertex -154.069 73.474 12.4528
      vertex -154.18 73.2507 18
    endloop
  endfacet
  facet normal -0.7542 0.656645 -0.000137111
    outer loop
      vertex -154.066 73.4789 18
      vertex -153.897 73.6709 12.4528
      vertex -154.069 73.474 12.4528
    endloop
  endfacet
  facet normal -0.752239 0.65889 0
    outer loop
      vertex -153.897 73.6709 18
      vertex -153.897 73.6709 12.4528
      vertex -154.066 73.4789 18
    endloop
  endfacet
  facet normal -0.561004 0.827813 0
    outer loop
      vertex -153.897 73.6709 18
      vertex -153.686 73.814 18
      vertex -153.897 73.6709 12.4528
    endloop
  endfacet
  facet normal -0.333236 0.942843 0.000133194
    outer loop
      vertex -153.446 73.8991 18
      vertex -153.681 73.8167 12.4528
      vertex -153.686 73.814 18
    endloop
  endfacet
  facet normal -0.0837185 0.996489 0.000262181
    outer loop
      vertex -153.191 73.9204 18
      vertex -153.434 73.9015 12.4528
      vertex -153.446 73.8991 18
    endloop
  endfacet
  facet normal 0.171134 0.985248 0.000380798
    outer loop
      vertex -152.94 73.8768 18
      vertex -153.174 73.9195 12.4528
      vertex -153.191 73.9204 18
    endloop
  endfacet
  facet normal 0.179889 0.983687 -0
    outer loop
      vertex -152.94 73.8768 0
      vertex -153.174 73.9195 12.4528
      vertex -152.94 73.8768 18
    endloop
  endfacet
  facet normal 0.179889 0.983687 0
    outer loop
      vertex -153.174 73.9195 12.4528
      vertex -152.94 73.8768 0
      vertex -153.174 73.9195 1.35833
    endloop
  endfacet
  facet normal -0.0689164 0.997622 0
    outer loop
      vertex -153.174 73.9195 1.35833
      vertex -153.434 73.9015 12.4528
      vertex -153.174 73.9195 12.4528
    endloop
  endfacet
  facet normal -0.0689164 0.997622 0
    outer loop
      vertex -153.434 73.9015 12.4528
      vertex -153.174 73.9195 1.35833
      vertex -153.434 73.9015 1.35833
    endloop
  endfacet
  facet normal -0.558552 0.82947 -0.000136132
    outer loop
      vertex -153.686 73.814 18
      vertex -153.681 73.8167 12.4528
      vertex -153.897 73.6709 12.4528
    endloop
  endfacet
  facet normal -0.333236 0.942843 -0.000543944
    outer loop
      vertex -153.681 73.8167 1.35833
      vertex -153.446 73.8991 0
      vertex -153.686 73.814 0
    endloop
  endfacet
  facet normal -0.558552 0.829469 0.000555942
    outer loop
      vertex -153.681 73.8167 1.35833
      vertex -153.686 73.814 0
      vertex -153.897 73.6709 1.35833
    endloop
  endfacet
  facet normal -0.978526 0.206122 0.000262413
    outer loop
      vertex -154.18 73.2507 18
      vertex -154.183 73.2395 12.4528
      vertex -154.232 73.001 18
    endloop
  endfacet
  facet normal -0.898436 0.439105 -0.000263182
    outer loop
      vertex -154.18 73.2507 18
      vertex -154.069 73.474 12.4528
      vertex -154.183 73.2395 12.4528
    endloop
  endfacet
  facet normal -0.561004 0.827813 0
    outer loop
      vertex -153.897 73.6709 1.35833
      vertex -153.686 73.814 0
      vertex -153.897 73.6709 0
    endloop
  endfacet
  facet normal -0.752239 0.65889 0
    outer loop
      vertex -153.897 73.6709 1.35833
      vertex -153.897 73.6709 0
      vertex -154.066 73.4789 0
    endloop
  endfacet
  facet normal -0.894529 0.44701 -0.000543552
    outer loop
      vertex -154.069 73.474 1.35833
      vertex -154.066 73.4789 0
      vertex -154.18 73.2507 0
    endloop
  endfacet
  facet normal -0.978526 0.206122 -0.00107165
    outer loop
      vertex -154.183 73.2395 1.35833
      vertex -154.18 73.2507 0
      vertex -154.232 73.001 0
    endloop
  endfacet
  facet normal -0.998831 -0.0483151 -0.00155074
    outer loop
      vertex -154.232 73.001 0
      vertex -154.22 72.7461 0
      vertex -154.233 72.9832 1.35833
    endloop
  endfacet
  facet normal -0.998832 -0.0483152 0.000379726
    outer loop
      vertex -154.22 72.7461 18
      vertex -154.232 73.001 18
      vertex -154.233 72.9832 12.4528
    endloop
  endfacet
  facet normal -0.981486 0.191534 -0.000390822
    outer loop
      vertex -154.232 73.001 18
      vertex -154.183 73.2395 12.4528
      vertex -154.233 72.9832 12.4528
    endloop
  endfacet
  facet normal -0.898435 0.439105 0.00107479
    outer loop
      vertex -154.069 73.474 1.35833
      vertex -154.18 73.2507 0
      vertex -154.183 73.2395 1.35833
    endloop
  endfacet
  facet normal -0.898436 0.439105 0
    outer loop
      vertex -154.183 73.2395 1.35833
      vertex -154.069 73.474 12.4528
      vertex -154.069 73.474 1.35833
    endloop
  endfacet
  facet normal -0.898436 0.439105 0
    outer loop
      vertex -154.069 73.474 12.4528
      vertex -154.183 73.2395 1.35833
      vertex -154.183 73.2395 12.4528
    endloop
  endfacet
  facet normal -0.981486 0.191534 0
    outer loop
      vertex -154.233 72.9832 1.35833
      vertex -154.183 73.2395 12.4528
      vertex -154.183 73.2395 1.35833
    endloop
  endfacet
  facet normal -0.981486 0.191534 0
    outer loop
      vertex -154.183 73.2395 12.4528
      vertex -154.233 72.9832 1.35833
      vertex -154.233 72.9832 12.4528
    endloop
  endfacet
  facet normal -0.981485 0.191533 0.00159605
    outer loop
      vertex -154.183 73.2395 1.35833
      vertex -154.232 73.001 0
      vertex -154.233 72.9832 1.35833
    endloop
  endfacet
  facet normal -0.7542 0.656644 0.000559938
    outer loop
      vertex -153.897 73.6709 1.35833
      vertex -154.066 73.4789 0
      vertex -154.069 73.474 1.35833
    endloop
  endfacet
  facet normal -0.7542 0.656645 0
    outer loop
      vertex -154.069 73.474 1.35833
      vertex -153.897 73.6709 12.4528
      vertex -153.897 73.6709 1.35833
    endloop
  endfacet
  facet normal -0.7542 0.656645 0
    outer loop
      vertex -153.897 73.6709 12.4528
      vertex -154.069 73.474 1.35833
      vertex -154.069 73.474 12.4528
    endloop
  endfacet
  facet normal -0.998364 -0.0571705 0
    outer loop
      vertex -154.22 72.7461 0
      vertex -154.233 72.9832 12.4528
      vertex -154.233 72.9832 1.35833
    endloop
  endfacet
  facet normal -0.998364 -0.0571705 0
    outer loop
      vertex -154.233 72.9832 12.4528
      vertex -154.22 72.7461 0
      vertex -154.22 72.7461 18
    endloop
  endfacet
  facet normal -0.324885 0.945753 -0.000264247
    outer loop
      vertex -153.446 73.8991 18
      vertex -153.434 73.9015 12.4528
      vertex -153.681 73.8167 12.4528
    endloop
  endfacet
  facet normal -0.0689164 0.997622 -0.000389235
    outer loop
      vertex -153.191 73.9204 18
      vertex -153.174 73.9195 12.4528
      vertex -153.434 73.9015 12.4528
    endloop
  endfacet
  facet normal -0.324885 0.945753 0
    outer loop
      vertex -153.434 73.9015 1.35833
      vertex -153.681 73.8167 12.4528
      vertex -153.434 73.9015 12.4528
    endloop
  endfacet
  facet normal -0.324885 0.945753 0
    outer loop
      vertex -153.681 73.8167 12.4528
      vertex -153.434 73.9015 1.35833
      vertex -153.681 73.8167 1.35833
    endloop
  endfacet
  facet normal -0.558552 0.82947 0
    outer loop
      vertex -153.681 73.8167 1.35833
      vertex -153.897 73.6709 12.4528
      vertex -153.681 73.8167 12.4528
    endloop
  endfacet
  facet normal -0.558552 0.82947 0
    outer loop
      vertex -153.897 73.6709 12.4528
      vertex -153.681 73.8167 1.35833
      vertex -153.897 73.6709 1.35833
    endloop
  endfacet
  facet normal -0.984509 -0.175333 0
    outer loop
      vertex -142.386 6.3 0
      vertex -154.22 72.7461 18
      vertex -154.22 72.7461 0
    endloop
  endfacet
  facet normal -0.984509 -0.175333 0
    outer loop
      vertex -154.22 72.7461 18
      vertex -142.386 6.3 0
      vertex -142.386 6.3 18
    endloop
  endfacet
  facet normal 0.999398 0.0346928 0
    outer loop
      vertex -52.2862 96.7741 18
      vertex -52.3223 97.8143 0
      vertex -52.3223 97.8143 18
    endloop
  endfacet
  facet normal 0.999398 0.0346928 0
    outer loop
      vertex -52.3223 97.8143 0
      vertex -52.2862 96.7741 18
      vertex -52.2862 96.7741 0
    endloop
  endfacet
  facet normal -0.0296132 0.999561 0
    outer loop
      vertex -55.8651 101.136 0
      vertex -56.9055 101.105 18
      vertex -55.8651 101.136 18
    endloop
  endfacet
  facet normal -0.0296132 0.999561 0
    outer loop
      vertex -56.9055 101.105 18
      vertex -55.8651 101.136 0
      vertex -56.9055 101.105 0
    endloop
  endfacet
  facet normal 0.956613 0.291363 0
    outer loop
      vertex -52.3223 97.8143 18
      vertex -52.6256 98.81 0
      vertex -52.6256 98.81 18
    endloop
  endfacet
  facet normal 0.956613 0.291363 0
    outer loop
      vertex -52.6256 98.81 0
      vertex -52.3223 97.8143 18
      vertex -52.3223 97.8143 0
    endloop
  endfacet
  facet normal 0.849055 0.528305 0
    outer loop
      vertex -52.6256 98.81 18
      vertex -53.1754 99.6938 0
      vertex -53.1754 99.6938 18
    endloop
  endfacet
  facet normal 0.849055 0.528305 0
    outer loop
      vertex -53.1754 99.6938 0
      vertex -52.6256 98.81 18
      vertex -52.6256 98.81 0
    endloop
  endfacet
  facet normal 0.684005 0.729477 -0
    outer loop
      vertex -53.1754 99.6938 0
      vertex -53.9347 100.406 18
      vertex -53.1754 99.6938 18
    endloop
  endfacet
  facet normal 0.684005 0.729477 0
    outer loop
      vertex -53.9347 100.406 18
      vertex -53.1754 99.6938 0
      vertex -53.9347 100.406 0
    endloop
  endfacet
  facet normal 0.472648 0.881251 -0
    outer loop
      vertex -53.9347 100.406 0
      vertex -54.852 100.898 18
      vertex -53.9347 100.406 18
    endloop
  endfacet
  facet normal 0.472648 0.881251 0
    outer loop
      vertex -54.852 100.898 18
      vertex -53.9347 100.406 0
      vertex -54.852 100.898 0
    endloop
  endfacet
  facet normal 0.229281 0.97336 -0
    outer loop
      vertex -54.852 100.898 0
      vertex -55.8651 101.136 18
      vertex -54.852 100.898 18
    endloop
  endfacet
  facet normal 0.229281 0.97336 0
    outer loop
      vertex -55.8651 101.136 18
      vertex -54.852 100.898 0
      vertex -55.8651 101.136 0
    endloop
  endfacet
  facet normal -0.15941 0.987213 0
    outer loop
      vertex -56.9055 101.105 0
      vertex -144.017 87.0393 18
      vertex -56.9055 101.105 18
    endloop
  endfacet
  facet normal -0.15941 0.987213 0
    outer loop
      vertex -144.017 87.0393 18
      vertex -56.9055 101.105 0
      vertex -144.017 87.0393 0
    endloop
  endfacet
  facet normal -0.997508 0.0705591 0
    outer loop
      vertex -37.3333 96.4932 0
      vertex -37.2607 97.5184 18
      vertex -37.2607 97.5184 0
    endloop
  endfacet
  facet normal -0.997508 0.0705591 0
    outer loop
      vertex -37.2607 97.5184 18
      vertex -37.3333 96.4932 0
      vertex -37.3333 96.4932 18
    endloop
  endfacet
  facet normal 0.0456762 0.998956 -0
    outer loop
      vertex -32.6454 100.665 0
      vertex -33.6721 100.712 18
      vertex -32.6454 100.665 18
    endloop
  endfacet
  facet normal 0.0456762 0.998956 0
    outer loop
      vertex -33.6721 100.712 18
      vertex -32.6454 100.665 0
      vertex -33.6721 100.712 0
    endloop
  endfacet
  facet normal -0.946603 0.322402 0
    outer loop
      vertex -37.2607 97.5184 0
      vertex -36.9294 98.4912 18
      vertex -36.9294 98.4912 0
    endloop
  endfacet
  facet normal -0.946603 0.322402 0
    outer loop
      vertex -36.9294 98.4912 18
      vertex -37.2607 97.5184 0
      vertex -37.2607 97.5184 18
    endloop
  endfacet
  facet normal -0.8332 0.552971 0
    outer loop
      vertex -36.9294 98.4912 0
      vertex -36.3611 99.3475 18
      vertex -36.3611 99.3475 0
    endloop
  endfacet
  facet normal -0.8332 0.552971 0
    outer loop
      vertex -36.3611 99.3475 18
      vertex -36.9294 98.4912 0
      vertex -36.9294 98.4912 18
    endloop
  endfacet
  facet normal -0.664816 0.747007 0
    outer loop
      vertex -35.5934 100.031 0
      vertex -36.3611 99.3475 18
      vertex -35.5934 100.031 18
    endloop
  endfacet
  facet normal -0.664816 0.747007 0
    outer loop
      vertex -36.3611 99.3475 18
      vertex -35.5934 100.031 0
      vertex -36.3611 99.3475 0
    endloop
  endfacet
  facet normal -0.452524 0.891752 0
    outer loop
      vertex -34.6769 100.496 0
      vertex -35.5934 100.031 18
      vertex -34.6769 100.496 18
    endloop
  endfacet
  facet normal -0.452524 0.891752 0
    outer loop
      vertex -35.5934 100.031 18
      vertex -34.6769 100.496 0
      vertex -35.5934 100.031 0
    endloop
  endfacet
  facet normal -0.210337 0.977629 0
    outer loop
      vertex -33.6721 100.712 0
      vertex -34.6769 100.496 18
      vertex -33.6721 100.712 18
    endloop
  endfacet
  facet normal -0.210337 0.977629 0
    outer loop
      vertex -34.6769 100.496 18
      vertex -33.6721 100.712 0
      vertex -34.6769 100.496 0
    endloop
  endfacet
  facet normal 0.173648 0.984808 -0
    outer loop
      vertex -6.3 96.0197 0
      vertex -32.6454 100.665 18
      vertex -6.3 96.0197 18
    endloop
  endfacet
  facet normal 0.173648 0.984808 0
    outer loop
      vertex -32.6454 100.665 18
      vertex -6.3 96.0197 0
      vertex -32.6454 100.665 0
    endloop
  endfacet
  facet normal 0.99976 0.0219214 0
    outer loop
      vertex -52.2476 95.0131 18
      vertex -52.2862 96.7741 0
      vertex -52.2862 96.7741 18
    endloop
  endfacet
  facet normal 0.99976 0.0219214 0
    outer loop
      vertex -52.2862 96.7741 0
      vertex -52.2476 95.0131 18
      vertex -52.2476 95.0131 0
    endloop
  endfacet
  facet normal 0.74643 0.665464 0
    outer loop
      vertex -49.794 90.443 18
      vertex -50.9661 91.7578 0
      vertex -50.9661 91.7578 18
    endloop
  endfacet
  facet normal 0.74643 0.665464 0
    outer loop
      vertex -50.9661 91.7578 0
      vertex -49.794 90.443 18
      vertex -49.794 90.443 0
    endloop
  endfacet
  facet normal 0.570636 0.821203 -0
    outer loop
      vertex -48.3475 89.4379 0
      vertex -49.794 90.443 18
      vertex -48.3475 89.4379 18
    endloop
  endfacet
  facet normal 0.570636 0.821203 0
    outer loop
      vertex -49.794 90.443 18
      vertex -48.3475 89.4379 0
      vertex -49.794 90.443 0
    endloop
  endfacet
  facet normal 0.967076 0.254488 0
    outer loop
      vertex -51.7993 93.3097 18
      vertex -52.2476 95.0131 0
      vertex -52.2476 95.0131 18
    endloop
  endfacet
  facet normal 0.967076 0.254488 0
    outer loop
      vertex -52.2476 95.0131 0
      vertex -51.7993 93.3097 18
      vertex -51.7993 93.3097 0
    endloop
  endfacet
  facet normal 0.881048 0.473027 0
    outer loop
      vertex -50.9661 91.7578 18
      vertex -51.7993 93.3097 0
      vertex -51.7993 93.3097 18
    endloop
  endfacet
  facet normal 0.881048 0.473027 0
    outer loop
      vertex -51.7993 93.3097 0
      vertex -50.9661 91.7578 18
      vertex -50.9661 91.7578 0
    endloop
  endfacet
  facet normal 0.36337 0.931645 -0
    outer loop
      vertex -46.7065 88.7979 0
      vertex -48.3475 89.4379 18
      vertex -46.7065 88.7979 18
    endloop
  endfacet
  facet normal 0.36337 0.931645 0
    outer loop
      vertex -48.3475 89.4379 18
      vertex -46.7065 88.7979 0
      vertex -48.3475 89.4379 0
    endloop
  endfacet
  facet normal 0.136058 0.990701 -0
    outer loop
      vertex -44.9614 88.5582 0
      vertex -46.7065 88.7979 18
      vertex -44.9614 88.5582 18
    endloop
  endfacet
  facet normal 0.136058 0.990701 0
    outer loop
      vertex -46.7065 88.7979 18
      vertex -44.9614 88.5582 0
      vertex -46.7065 88.7979 0
    endloop
  endfacet
  facet normal -0.0987517 0.995112 0
    outer loop
      vertex -43.2086 88.7322 0
      vertex -44.9614 88.5582 18
      vertex -43.2086 88.7322 18
    endloop
  endfacet
  facet normal -0.0987517 0.995112 0
    outer loop
      vertex -44.9614 88.5582 18
      vertex -43.2086 88.7322 0
      vertex -44.9614 88.5582 0
    endloop
  endfacet
  facet normal -0.998231 0.0594576 0
    outer loop
      vertex -37.438 94.7349 0
      vertex -37.3333 96.4932 18
      vertex -37.3333 96.4932 0
    endloop
  endfacet
  facet normal -0.998231 0.0594576 0
    outer loop
      vertex -37.3333 96.4932 18
      vertex -37.438 94.7349 0
      vertex -37.438 94.7349 18
    endloop
  endfacet
  facet normal -0.328117 0.944637 0
    outer loop
      vertex -41.5447 89.3101 0
      vertex -43.2086 88.7322 18
      vertex -41.5447 89.3101 18
    endloop
  endfacet
  facet normal -0.328117 0.944637 0
    outer loop
      vertex -43.2086 88.7322 18
      vertex -41.5447 89.3101 0
      vertex -43.2086 88.7322 0
    endloop
  endfacet
  facet normal -0.53939 0.842056 0
    outer loop
      vertex -40.0615 90.2602 0
      vertex -41.5447 89.3101 18
      vertex -40.0615 90.2602 18
    endloop
  endfacet
  facet normal -0.53939 0.842056 0
    outer loop
      vertex -41.5447 89.3101 18
      vertex -40.0615 90.2602 0
      vertex -41.5447 89.3101 0
    endloop
  endfacet
  facet normal -0.720905 0.693034 0
    outer loop
      vertex -40.0615 90.2602 0
      vertex -38.8408 91.53 18
      vertex -38.8408 91.53 0
    endloop
  endfacet
  facet normal -0.720905 0.693034 0
    outer loop
      vertex -38.8408 91.53 18
      vertex -40.0615 90.2602 0
      vertex -40.0615 90.2602 18
    endloop
  endfacet
  facet normal -0.862661 0.505783 0
    outer loop
      vertex -38.8408 91.53 0
      vertex -37.9499 93.0495 18
      vertex -37.9499 93.0495 0
    endloop
  endfacet
  facet normal -0.862661 0.505783 0
    outer loop
      vertex -37.9499 93.0495 18
      vertex -38.8408 91.53 0
      vertex -38.8408 91.53 18
    endloop
  endfacet
  facet normal -0.956834 0.290634 0
    outer loop
      vertex -37.9499 93.0495 0
      vertex -37.438 94.7349 18
      vertex -37.438 94.7349 0
    endloop
  endfacet
  facet normal -0.956834 0.290634 0
    outer loop
      vertex -37.438 94.7349 18
      vertex -37.9499 93.0495 0
      vertex -37.9499 93.0495 18
    endloop
  endfacet
endsolid OpenSCAD_Model
